<?xml version="1.0" encoding="UTF-8" standalone="no"?>
<!-- Created with Inkscape (http://www.inkscape.org/) -->

<svg
   width="1920"
   height="1080"
   viewBox="0 0 1920 1080"
   version="1.1"
   id="svg1"
   xml:space="preserve"
   sodipodi:docname="mask.svg"
   inkscape:version="1.4.2 (ebf0e940d0, 2025-05-08)"
   xmlns:inkscape="http://www.inkscape.org/namespaces/inkscape"
   xmlns:sodipodi="http://sodipodi.sourceforge.net/DTD/sodipodi-0.dtd"
   xmlns="http://www.w3.org/2000/svg"
   xmlns:svg="http://www.w3.org/2000/svg"><sodipodi:namedview
     id="namedview1"
     pagecolor="#ffffff"
     bordercolor="#000000"
     borderopacity="0.25"
     inkscape:showpageshadow="2"
     inkscape:pageopacity="0.0"
     inkscape:pagecheckerboard="0"
     inkscape:deskcolor="#d1d1d1"
     inkscape:document-units="px"
     inkscape:zoom="0.28394757"
     inkscape:cx="1192.1215"
     inkscape:cy="517.70121"
     inkscape:window-width="1920"
     inkscape:window-height="1048"
     inkscape:window-x="0"
     inkscape:window-y="0"
     inkscape:window-maximized="1"
     inkscape:current-layer="layer1" /><defs
     id="defs1" /><g
     inkscape:label="Layer 1"
     inkscape:groupmode="layer"
     id="layer1"><path
       id="path14"
       style="opacity:0.914781;fill:#ffd90a;stroke-width:10.6748;stroke-linecap:round;stroke-linejoin:round;paint-order:fill markers stroke"
       d="m 1665.2078,0 c -6.6274,0 -11.9618,5.3344284 -11.9618,11.961838 V 22.623334 H 11.961838 C 5.3344284,22.623334 0,27.959969 0,34.58739 v 46.228552 h 38.64543 c 6.62741,0 11.96184,5.336643 11.96184,11.964055 V 1019.2265 c 0,6.6274 -5.33443,11.9641 -11.96184,11.9641 H 0 v 36.8453 C 0,1074.6633 5.3344284,1080 11.961838,1080 H 1894.1302 c 6.6274,0 11.964,-5.3367 11.964,-11.9641 V 34.58739 c 0,-6.627421 -5.3366,-11.964055 -11.964,-11.964055 h -34.2865 V 11.961838 C 1859.8437,5.3344284 1854.5092,0 1847.8817,0 h -24.1558 c -6.6274,0 -11.9618,5.3344284 -11.9618,11.961838 v 10.661496 h -31.1796 V 11.961838 C 1780.5845,5.3344284 1775.25,0 1768.6227,0 h -24.1558 c -6.6274,0 -11.9619,5.3344284 -11.9619,11.961838 v 10.661496 h -31.1795 V 11.961838 C 1701.3255,5.3344284 1695.991,0 1689.3636,0 Z" /><path
       style="fill:#000000"
       d="m -1462.1977,2459.7754 c -1.3209,-1.8859 -1.5567,-6.5579 -1.5567,-30.845 0,-35.5996 -1.5522,-32.7765 17.2351,-31.3476 8.1536,0.6201 9.1,0.4859 14.2145,-2.0164 22.7823,-11.1464 21.4916,-43.6782 -2.0848,-52.5443 -5.8917,-2.2156 -10.5826,-2.3138 -21.5169,-0.4505 -2.9076,0.4955 -4.0796,0.1947 -5.75,-1.4756 -2.0323,-2.0324 -2.0979,-2.9881 -2.0979,-30.568 v -28.4701 l -27.8253,0.01 c -15.304,0 -28.5475,-0.2713 -29.4302,-0.61 -2.7952,-1.0727 -3.6054,-5.4861 -2.2311,-12.1546 5.9766,-29.0022 -29.2144,-47.1109 -48.9324,-25.1798 -7.0447,7.8354 -8.8139,15.2894 -6.4013,26.97 1.0298,4.9858 0.9633,6.0417 -0.5231,8.3102 l -1.7027,2.5987 h -28.7545 c -24.4065,0 -29.0905,-0.2354 -30.9769,-1.5567 -1.2224,-0.8562 -2.2225,-2.4108 -2.2225,-3.4546 0,-1.7126 0.2396,-1.6582 2.4545,0.5567 l 2.4546,2.4546 27.2954,-0.015 c 15.0125,-0.01 27.9019,-0.3997 28.6431,-0.8694 1.4902,-0.9444 1.5376,-2.0157 0.6019,-13.6153 -0.8428,-10.449 1.4998,-17.1758 8.3246,-23.9045 7.1052,-7.005 12.0986,-9.0955 21.7259,-9.0955 6.8299,0 8.8301,0.4206 13.676,2.8761 9.405,4.7656 14.7992,11.947 16.7667,22.3221 0.8896,4.6904 0.092,14.8188 -1.351,17.1533 -0.2796,0.4524 0.1734,1.7959 1.0067,2.9855 1.4937,2.1326 1.9217,2.163 30.4583,2.163 h 28.9433 v 28.845 c 0,27.1143 0.1145,28.9485 1.9085,30.5721 1.6041,1.4517 2.5215,1.5571 5.75,0.6606 20.3731,-5.6571 40.3015,8.6692 40.3317,28.994 0.013,8.5109 -2.1655,14.7096 -7.1642,20.3884 -8.0934,9.1945 -17.8294,12.5073 -30.5033,10.3792 -10.9564,-1.8397 -10.3288,-3.6107 -10.2895,29.0329 0.03,24.8265 0.2109,27.8399 1.7847,29.7224 0.9633,1.1522 2.4109,2.3542 3.2168,2.6711 0.8505,0.3344 0.3353,0.6093 -1.228,0.6551 -1.7118,0.05 -3.2606,-0.731 -4.25,-2.1436 z m 181.5202,-0.7006 2.9231,-2.9231 v -27.5202 c 0,-26.4935 -0.075,-27.5731 -2.0236,-28.9376 -1.747,-1.2236 -2.8698,-1.2219 -8.2133,0.013 -23.9879,5.5418 -44.4079,-17.8738 -35.7551,-41.0003 4.2427,-11.3397 14.0029,-18.6182 26.1299,-19.4859 4.0332,-0.2886 8.6962,0.031 11.3706,0.7802 4.0451,1.1325 4.747,1.0763 6.5126,-0.5216 1.8893,-1.7098 1.9789,-3.1692 1.9789,-32.2524 v -30.4616 l 2.25,0.8118 c 1.2375,0.4464 14.2362,0.9693 28.886,1.1619 24.4576,0.3216 26.7739,0.5026 28.3222,2.2135 1.4085,1.5563 1.5106,2.496 0.6196,5.7046 -4.0503,14.5865 2.6496,30.6362 15.3914,36.8702 23.4845,11.4898 49.2107,-8.46 43.9462,-34.0788 -1.0208,-4.9674 -0.9871,-6.3215 0.204,-8.1999 1.4186,-2.2373 1.5713,-2.25 26.9357,-2.25 19.1076,0 26.3167,-0.3376 28.727,-1.3451 6.2044,-2.5935 6.1879,-2.5165 6.5314,-30.446 0.4043,-32.8775 0.389,-32.9193 -11.1765,-30.5511 -12.1812,2.4943 -23.9264,-1.9882 -31.2513,-11.9269 -11.8632,-16.0965 -5.7926,-37.8899 12.8898,-46.2741 5.3549,-2.4031 6.8398,-2.6382 13.6174,-2.1561 4.1839,0.2976 8.578,0.8433 9.7646,1.2127 1.4988,0.4665 2.7965,0.033 4.25,-1.421 2.0114,-2.0114 2.0925,-3.0585 2.0925,-27.0273 0,-13.7142 -0.432,-26.0712 -0.9601,-27.4601 -0.528,-1.3888 -1.878,-3.4431 -3,-4.5651 -1.9525,-1.9525 -3.1971,-2.0399 -29.0399,-2.0399 -25.9506,0 -27.0803,-0.08 -29.0652,-2.0651 -1.6702,-1.6702 -1.9092,-2.6743 -1.25,-5.25 0.4484,-1.7517 0.8152,-6.7849 0.8152,-11.1849 0,-6.4158 -0.4736,-8.9621 -2.3917,-12.8583 -7.3448,-14.9202 -24.6977,-20.9771 -40.1854,-14.0266 -13.7517,6.1714 -20.3889,20.549 -16.7546,36.2939 1.0379,4.4964 0.9648,5.2864 -0.655,7.0762 -1.7432,1.9263 -3.0264,2.0148 -29.2138,2.0148 h -27.3904 l -2.4546,2.4545 -2.4545,2.4546 v 27.474 c 0,24.0184 0.2042,27.6782 1.6237,29.0977 1.2195,1.2195 2.402,1.424 4.75,0.8215 1.7194,-0.4413 6.9513,-0.8008 11.6263,-0.799 7.8076,0 8.9698,0.2745 14.2681,3.3337 10.7188,6.189 16.48,17.2535 15.4788,29.7271 -1.254,15.6226 -14.7982,27.8345 -30.6393,27.6257 -3.6342,-0.048 -8.0309,-0.5175 -9.7705,-1.0436 -2.384,-0.7211 -3.6767,-0.5967 -5.25,0.5053 -2.0323,1.4235 -2.0871,2.2025 -2.0861,29.6552 l 10e-4,28.1933 -21.751,-0.2455 c -11.9631,-0.1351 -24.001,-0.4909 -26.751,-0.7907 l -5,-0.5451 v -9.2094 c 0,-12.6126 -2.1262,-18.1704 -10.2595,-26.8176 -7.9235,-8.4242 -14.7953,-11.3771 -26.2958,-11.2996 -11.3459,0.076 -19.9237,3.3769 -27.0321,10.4013 -7.9156,7.822 -10.1537,14.115 -9.7769,27.4898 l 0.2822,10.0168 -26.2089,0.2666 -26.209,0.2666 v -26.9452 c 0,-30.9354 0.01,-30.9763 7.4217,-29.4474 7.4959,1.5463 17.6891,0.9379 22.7746,-1.3593 18.8172,-8.5 23.7437,-34.0609 9.4664,-49.1164 -7.506,-7.9152 -17.5581,-10.9091 -29.8317,-8.8853 -10.342,1.7053 -9.831,3.1523 -9.831,-27.837 0,-14.4718 -0.4307,-27.4451 -0.9571,-28.8296 -1.9545,-5.1407 -4.679,-5.613 -32.3825,-5.613 -23.1474,0 -25.6421,0.1646 -27.6955,1.8273 -2.1893,1.7728 -2.2186,2.0283 -0.9844,8.5697 1.5489,8.2083 0.81,14.4403 -2.5209,21.2635 -5.1722,10.5951 -15.0678,16.631 -27.4596,16.7494 -6.2734,0.06 -8.4347,-0.3859 -13.2145,-2.7253 -6.065,-2.9686 -12.356,-9.2701 -15.4333,-15.4593 -2.004,-4.0306 -2.6225,-18.2734 -1.0156,-23.3886 0.6573,-2.0925 0.3894,-3.1107 -1.25,-4.75 -2.0087,-2.0088 -3.0593,-2.0867 -28.1363,-2.0867 -21.0347,0 -26.6002,0.2847 -28.9096,1.479 -1.573,0.8134 -3.0902,2.0509 -3.3714,2.75 -0.2813,0.699 -0.547,0.2701 -0.5904,-0.9533 -0.1674,-4.7162 3.3642,-5.2757 33.2988,-5.2757 h 27.4771 l 2.1609,2.7471 c 1.8158,2.3084 2.0284,3.3864 1.3316,6.75 -1.5856,7.6542 -0.9288,17.6483 1.4606,22.2251 3.4019,6.516 7.8088,10.9431 13.8212,13.8847 11.7864,5.7666 26.2703,2.5219 34.3455,-7.6941 6.1855,-7.8252 7.501,-14.4325 5.5736,-27.9939 -0.7573,-5.3289 -0.6686,-5.6791 1.9642,-7.75 2.6701,-2.1003 3.5887,-2.1689 29.0573,-2.1689 14.4651,0 27.4308,0.4299 28.8129,0.9554 1.382,0.5254 3.3238,2.1918 4.3151,3.7031 1.5917,2.4267 1.8607,5.9661 2.3023,30.2946 l 0.5,27.5469 3.5,-0.266 c 14.2105,-1.0798 19.6831,-0.6238 25.2602,2.1049 6.7943,3.3241 12.8417,9.1984 15.9221,15.4662 1.7353,3.531 2.3948,6.8509 2.66,13.392 0.3077,7.5876 0.036,9.3889 -2.13,14.12 -5.4655,11.9384 -14.8331,18.5406 -27.5299,19.4031 -4.2628,0.2896 -9.4333,0.036 -11.616,-0.5692 -6.6244,-1.8376 -6.5664,-2.0711 -6.5664,26.4714 v 25.3776 h 23.8946 23.8947 l 0.3978,-11.75 c 0.3477,-10.2676 0.7278,-12.3851 3.0128,-16.784 7.3039,-14.0611 22.8908,-21.7641 40.5265,-20.0281 19.9337,1.9623 35.0821,19.9951 34.1043,40.598 -0.1819,3.8327 -0.3307,7.0338 -0.3307,7.1134 0,0.08 11.1001,0.4162 24.6668,0.7478 l 24.6669,0.6029 0.1211,-27.267 c 0.067,-14.9969 0.3613,-27.8932 0.6549,-28.6585 0.9625,-2.5082 5.9629,-3.9192 9.5087,-2.6831 1.749,0.6097 5.966,1.1086 9.3711,1.1086 7.3638,0 16.7591,-4.1391 21.1286,-9.3081 6.4349,-7.6124 8.6565,-17.7954 5.9292,-27.1771 -1.3483,-4.6379 -2.8463,-6.9737 -7.3794,-11.5069 -8.7414,-8.7414 -14.9107,-10.2126 -31.203,-7.4407 -2.61,0.444 -4.1113,0.1214 -5.7367,-1.2329 -2.1688,-1.8069 -2.2031,-2.2546 -2.2991,-29.9928 -0.064,-18.6217 0.2723,-28.8495 0.9944,-30.1987 2.6617,-4.9733 3.7197,-5.1428 32.1078,-5.1428 30.5,0 30.8717,-0.084 29.0739,-6.5594 -3.8288,-13.7908 2.1425,-29.5217 14.0627,-37.0466 5.6219,-3.549 14.9303,-5.6973 21.1736,-4.8869 19.4028,2.5189 31.6763,19.4618 28.4039,39.2102 -1.6136,9.7379 -2.9943,9.2827 28.1545,9.2827 23.0244,0 26.9722,0.2221 28.9832,1.6307 4.6488,3.2561 5.1169,6.4016 5.1169,34.3826 v 26.0776 l -2.5573,2.5572 c -2.1404,2.1404 -3.1592,2.4576 -6.25,1.9456 -15.108,-2.5028 -21.887,-1.2557 -29.4737,5.4224 -15.5498,13.6875 -13.0363,36.0694 5.2586,46.8251 3.9622,2.3294 5.5133,2.6408 12.5224,2.514 4.4,-0.08 9.9066,-0.2945 12.237,-0.4773 7.8076,-0.6126 7.763,-0.7889 7.763,30.6678 0,23.8585 0.195,27.4008 1.4814,26.9075 0.8148,-0.3124 13.3989,-0.5307 27.9647,-0.485 32.4076,0.1017 31.7363,-0.1162 30.4622,9.8882 -1.3433,10.5482 -0.8474,16.5047 1.8679,22.4357 10.3847,22.6832 39.7339,22.7556 50.3365,0.1242 2.6537,-5.6645 3.1868,-11.6131 1.9433,-21.6831 -1.382,-11.1908 -2.7034,-10.7332 30.9954,-10.7332 h 28.2414 l 3.1036,3.5348 3.1036,3.5348 v 27.8427 c 0,31.2427 -0.1042,30.7834 6.5647,28.9421 5.8698,-1.6208 17.1345,-0.5811 22.2805,2.0563 6.1488,3.1513 12.8856,10.2594 15.8403,16.7133 3.6226,7.9129 3.654,19.7702 0.073,27.592 -5.4705,11.9489 -14.9477,18.7475 -27.2603,19.5554 -3.8509,0.2527 -8.771,-0.029 -10.9335,-0.6262 -6.6672,-1.8409 -6.5648,-2.291 -6.5648,28.8421 0,26.5523 -0.089,27.8558 -2.0726,30.3776 -1.3556,1.7234 -2.9987,2.6129 -4.75,2.5714 -2.5538,-0.061 -2.5759,-0.1042 -0.4797,-0.9484 4.8484,-1.9525 5.3023,-4.8448 5.3023,-33.7835 0,-25.4502 0.1054,-26.9901 1.9618,-28.6701 1.775,-1.6064 2.5885,-1.6572 8.5419,-0.5339 15.5875,2.9412 28.6959,-4.3152 34.5531,-19.1274 5.7119,-14.4446 -1.659,-33.2354 -15.6089,-39.7926 -6.3022,-2.9624 -11.7244,-3.5379 -19.5041,-2.0699 -5.4716,1.0324 -7.1733,1.0437 -8.3636,0.056 -1.2501,-1.0375 -1.5423,-5.9824 -1.7873,-30.2412 l -0.2929,-29.0009 -2.8057,-2.4122 -2.8058,-2.4121 h -26.3728 c -30.9614,0 -30.131,-0.2558 -28.8217,8.8774 2.1356,14.8971 -1.3412,26.4219 -10.1481,33.6385 -4.8319,3.9593 -13.7046,7.4841 -18.8394,7.4841 -9.5721,0 -20.7411,-6.6334 -25.663,-15.2416 -4.5994,-8.0441 -5.6509,-14.237 -4.0702,-23.9706 1.2292,-7.5694 1.195,-8.1916 -0.5198,-9.4455 -1.4261,-1.0428 -7.7234,-1.3423 -28.2216,-1.3423 h -26.3858 l -2.923,2.9231 -2.9231,2.923 v 27.5769 c 0,26.6497 -0.07,27.6472 -2.0925,29.6693 -1.4431,1.4431 -2.762,1.8886 -4.25,1.4357 -5.7454,-1.749 -15.4867,-1.7456 -20.7639,0.01 -7.4268,2.4668 -15.8637,10.9129 -18.4543,18.4745 -6.652,19.4162 5.4603,40.4143 24.6211,42.6836 2.708,0.3207 7.6346,0.01 10.948,-0.6954 5.4681,-1.1604 6.2076,-1.1126 8.008,0.5167 1.8844,1.7053 1.9843,3.1499 1.9983,28.8901 0.016,28.9782 0.3098,30.9349 5.005,33.3106 l 2.4803,1.2549 -2.6774,0.015 c -1.7132,0.01 -3.4239,-0.9341 -4.75,-2.6201 -1.9837,-2.5218 -2.0726,-3.8252 -2.0726,-30.3775 0,-31.3009 0.036,-31.1446 -6.5982,-28.9552 -5.3964,1.781 -16.9516,0.7707 -22.2512,-1.9454 -6.874,-3.5229 -12.5907,-9.4595 -15.7346,-16.3394 -2.4296,-5.3171 -2.8534,-7.5133 -2.8459,-14.7475 0.01,-7.2883 0.4149,-9.3393 2.8572,-14.3878 3.3193,-6.8614 8.7246,-12.6185 14.7812,-15.7434 4.9981,-2.5787 18.7723,-3.7683 23.7083,-2.0476 5.8966,2.0555 6.0831,1.1929 6.084,-28.1425 l 9e-4,-26.1786 -27.7509,0.307 c -15.263,0.1688 -28.1309,0.6839 -28.5954,1.1446 -0.4646,0.4607 -0.3752,3.8528 0.1985,7.5379 2.4295,15.6056 -4.4293,29.7309 -17.5547,36.1525 -7.7963,3.8144 -18.5945,4.3856 -26.5009,1.4021 -7.9309,-2.9929 -14.8163,-9.4644 -18.2791,-17.1805 -2.6712,-5.9523 -2.7729,-6.7342 -2.2257,-17.1074 0.4174,-7.9124 0.2514,-10.985 -0.61,-11.2926 -0.651,-0.2324 -13.1905,-0.5443 -27.8658,-0.6931 l -26.6822,-0.2705 0.097,28.508 c 0.068,20.1176 -0.2494,29.1551 -1.0799,30.7069 -1.4297,2.6713 -6.5904,3.8294 -10.4781,2.3514 -8.2351,-3.131 -20.8857,0.3055 -28.1136,7.6369 -10.5842,10.7359 -11.358,26.1735 -1.9029,37.9652 4.2667,5.3212 8.4728,7.8939 16.1001,9.8479 5.5313,1.4171 6.7218,1.4159 12.8825,-0.013 6.4473,-1.4952 6.914,-1.48 9.3013,0.3023 1.3824,1.0321 2.8023,3.2889 3.1554,5.0151 0.353,1.7262 0.5881,14.5865 0.5223,28.5785 l -0.1196,25.4399 -2.4243,2.5803 c -1.3334,1.4192 -3.2112,2.5803 -4.1731,2.5803 -1.3972,0 -1.1611,-0.5877 1.1743,-2.9231 z m 183.73,-183.6031 c -0.3079,-0.3079 -0.8671,0.2471 -1.2426,1.2333 -0.5427,1.4252 -0.4278,1.5401 0.5598,0.5598 0.6834,-0.6783 0.9907,-1.4852 0.6828,-1.7931 z m 59.6264,185.2343 c 1.8186,-1.3633 1.8569,-1.8763 0.6468,-8.6478 -2.1945,-12.2796 0.8937,-23.0341 8.9187,-31.0591 6.0159,-6.0159 11.9351,-8.4504 20.5012,-8.4321 8.372,0.018 14.6957,2.6866 20.6731,8.724 7.9059,7.9853 10.607,17.2855 8.6788,29.8817 -0.9486,6.1964 -0.9278,8.0289 0.1054,9.2738 1.0752,1.2955 1.0148,1.5514 -0.3662,1.5514 -2.5835,0 -3.0364,-2.7391 -1.826,-11.0434 1.8277,-12.5397 -1.1826,-21.5839 -9.7647,-29.3372 -5.4436,-4.9181 -10.4078,-6.8695 -17.5004,-6.8797 -10.8851,-0.016 -20.3582,6.4328 -25.3564,17.2603 -2.0311,4.3998 -2.4895,6.8003 -2.2917,12 0.7267,19.102 0.8965,17.4673 -1.8519,17.8287 -2.3921,0.3145 -2.4166,0.2661 -0.5667,-1.1206 z m -53.2154,-5.8902 c -0.897,-0.897 -1.2189,-8.3458 -1.2216,-28.2679 0,-25.2714 -0.1351,-27.2653 -2.0005,-30.3249 -2.957,-4.8499 -5.9778,-5.6521 -15.6988,-4.169 -7.3498,1.1214 -8.6868,1.0668 -12.8551,-0.5251 -10.2537,-3.9159 -16.5669,-13.0942 -16.5669,-24.0855 0,-8.1135 2.4175,-13.6632 8.3043,-19.0631 7.0762,-6.4909 11.2006,-7.2537 25.9386,-4.7973 2.4012,0.4002 4.6656,0.061 6.7331,-1.0079 5.8511,-3.0258 6.1474,-4.6731 6.1643,-34.2773 0.01,-14.7398 0.3777,-27.3706 0.8207,-28.0685 0.6213,-0.9789 6.1445,-1.2074 24.1644,-1 l 23.3591,0.2689 0.1234,10.5 c 0.1067,9.077 0.4816,11.2796 2.7668,16.2535 3.3633,7.3205 8.0356,12.9875 13.7503,16.6779 25.8413,16.6872 58.2525,-4.3702 55.6041,-36.1261 l -0.6509,-7.8053 h 23.9164 c 20.8862,0 23.9933,0.2004 24.5234,1.5817 0.3338,0.87 0.607,13.7174 0.607,28.5497 0,29.747 0.3117,31.5123 5.9793,33.8599 2.1374,0.8853 4.5125,1.0169 7.7972,0.4319 8.8246,-1.5717 15.7449,-0.8939 20.7357,2.0309 21.1809,12.4128 13.4497,46.9059 -10.5122,46.9009 -3.025,-6e-4 -8.0712,-0.3671 -11.2138,-0.8144 -5.6425,-0.803 -5.758,-0.769 -9.25,2.723 l -3.5362,3.5361 v 27.9776 c 0,22.5232 -0.2682,28.2001 -1.3755,29.119 -0.964,0.8002 -8.2172,1.0611 -24.25,0.8725 l -22.8745,-0.2691 -0.036,-10 c -0.049,-13.7076 -2.4054,-19.62 -11.4147,-28.6456 -5.7105,-5.7208 -7.5819,-6.9385 -13.4468,-8.75 -8.1474,-2.5165 -13.3832,-2.6472 -20.671,-0.5161 -10.9358,3.1978 -18.488,9.9385 -23.7357,21.1854 -2.3368,5.0082 -2.6821,7.0431 -2.7541,16.2263 l -0.082,10.5 -22.9618,0.2679 c -17.0186,0.1986 -23.2771,-0.047 -24.1798,-0.95 z m 45.0772,-11.3902 c 0.2323,-9.1607 0.5626,-10.6964 3.6497,-16.9672 4.1776,-8.4859 10.6822,-15.1491 18.568,-19.0209 5.4515,-2.6766 6.8819,-2.9343 15.9872,-2.8805 7.8728,0.047 10.9572,0.4962 14.5,2.1141 15.585,7.117 24.8465,22.7492 23.7552,40.0955 l -0.4572,7.2688 22.101,-0.2688 22.101,-0.2687 0.2374,-27.5 c 0.2616,-30.2983 0.567,-31.9764 6.452,-35.4528 2.5773,-1.5225 4.1271,-1.6841 9.6893,-1.0103 10.9741,1.3292 14.5957,0.9612 19.6411,-1.9956 9.1345,-5.3532 13.4592,-17.0668 10.0693,-27.273 -3.3263,-10.0145 -15.5506,-17.7609 -24.2262,-15.3519 -5.728,1.5905 -13.0559,1.331 -15.9492,-0.5648 -5.1272,-3.3594 -5.4137,-5.1443 -5.4137,-33.7199 0,-14.5573 -0.2732,-27.1797 -0.607,-28.0497 -0.5277,-1.375 -3.4355,-1.5814 -22.25,-1.5794 h -21.643 v 10.2693 c 0,9.6768 -0.198,10.6715 -3.4318,17.2397 -4.1256,8.3794 -10.8929,15.2739 -18.8028,19.1562 -5.1613,2.5331 -6.8132,2.8296 -15.7654,2.8298 -8.7644,1e-4 -10.7087,-0.332 -15.7358,-2.6879 -7.6927,-3.6053 -15.1173,-11.2245 -19.0711,-19.5711 -2.9457,-6.2184 -3.1931,-7.5362 -3.1931,-17.0058 v -10.2651 l -22,0.2651 -22,0.2651 -0.5,28.0468 c -0.5523,30.9794 -0.6987,31.6945 -7.175,35.0436 -3.104,1.6051 -6.5603,1.5627 -15.6136,-0.1916 -4.7016,-0.9111 -11.4929,1.2942 -16.0817,5.222 -12.5865,10.7736 -10.2954,31.106 4.3511,38.6144 4.269,2.1885 7.9269,2.4287 19.1468,1.2574 l 7.1276,-0.7441 3.8724,3.5474 3.8724,3.5473 0.2697,27.8283 c 0.1483,15.3055 0.4751,28.3995 0.7261,29.0978 0.3539,0.9842 5.2988,1.209 22.0002,1 l 21.5438,-0.2696 z m 685.02316,-135.6578 c -5.861,-5.7477 -9.3183,-9.9123 -9.3183,-11.2247 0,-1.2933 3.3343,-5.4054 8.7698,-10.8158 11.5639,-11.5103 11.9991,-11.5189 23.0023,-0.4583 10.9494,11.0066 10.9488,11.6011 -0.022,22.3755 -4.5375,4.4563 -9.3442,8.3631 -10.6817,8.6819 -2.0503,0.4886 -3.893,-0.8535 -11.75,-8.5586 z m 2.1166,-2.0332 c -4.3642,-4.5449 -8.1359,-8.1314 -8.3816,-7.97 -0.4744,0.3118 15.0791,16.2335 15.8582,16.2335 0.2521,0 -3.1124,-3.7186 -7.4766,-8.2635 z m 18.9708,0.3584 c 8.6783,-8.7295 9.2181,-10.7674 3.843,-14.5074 l -2.7487,-1.9125 2.8472,3.0687 c 1.8712,2.0167 2.6442,3.7007 2.2549,4.9125 -0.3257,1.0141 -3.912,5.1063 -7.9695,9.0938 -4.0576,3.9875 -7.0867,7.25 -6.7315,7.25 0.3552,0 4.1823,-3.5573 8.5046,-7.9051 z m -2.6267,-2.3723 7.2288,-7.2775 -6.0039,-5.9412 -6.0039,-5.9412 v 3.6596 c 0,2.0129 0.45,3.9378 1,4.2778 0.55,0.3399 1,2.1761 1,4.0804 0,4.622 -3.5965,6.5692 -7.459,4.0383 -2.8687,-1.8796 -3.2336,-4.3208 -1.0728,-7.1776 0.8075,-1.0676 1.4825,-3.5897 1.5,-5.6046 l 0.032,-3.6634 -6.1635,6.4186 -6.1635,6.4186 6.9031,6.9948 c 3.7967,3.8472 7.1441,6.9948 7.4386,6.9948 0.2944,0 3.7884,-3.2748 7.7643,-7.2774 z m -5.1148,-6.2898 c 0.3308,-0.862 0.092,-2.0769 -0.5314,-2.7 -1.2166,-1.2166 -1.6039,-13.7327 -0.4249,-13.7327 0.3893,0 2.4143,1.6663 4.5,3.7029 2.0857,2.0366 3.7921,3.4205 3.7921,3.0752 0,-1.288 -8.5592,-8.757 -10.047,-8.7674 -0.8509,-0.01 -3.3259,1.9012 -5.5,4.2379 -3.6104,3.8806 -3.6456,3.9672 -0.4054,1 1.9512,-1.7867 4.0887,-3.2486 4.75,-3.2486 1.5757,0 1.6374,12.165 0.07,13.7327 -1.4628,1.4627 -0.3897,4.2672 1.6327,4.2672 0.8596,0 1.8334,-0.7052 2.1642,-1.5672 z m -15.6642,-5.9438 3.5,-3.9889 -3.75,3.4461 c -2.0625,1.8954 -3.75,3.8829 -3.75,4.4167 0,0.5337 0.1125,0.778 0.25,0.5428 0.1375,-0.2353 1.825,-2.2227 3.75,-4.4167 z m 80.5,17.1205 c -4.8499,-2.1602 -6.7931,-5.0986 -7.2836,-11.0145 -0.4176,-5.0353 -0.2227,-5.6174 3.0921,-9.2345 3.1144,-3.3984 4.0833,-3.8604 8.0955,-3.8604 6.0881,0 10.7872,4.3449 10.9727,10.1459 l 0.1233,3.854 -8.3634,0.5 c -7.7978,0.4662 -8.2374,0.6081 -6.5,2.0979 3.2865,2.8183 4.0782,2.9144 6.7426,0.8185 2.72,-2.1395 6.6826,-2.272 7.3494,-0.2458 0.6214,1.8886 -4.9661,7.1378 -8.2286,7.7303 -1.65,0.2996 -4.35,-0.057 -6,-0.7914 z m 9.2775,-3.1662 c 1.2224,-0.8562 2.2225,-1.9946 2.2225,-2.5299 0,-0.5353 -1.299,-0.013 -2.8867,1.161 -4.8223,3.5653 -12.1133,0.3771 -12.1133,-5.2969 0,-1.5656 1.0259,-1.7775 8.6084,-1.7775 h 8.6085 l -0.6461,-2.7499 c -1.355,-5.7675 -8.434,-8.9991 -13.6262,-6.2204 -3.1007,1.6595 -5.2136,6.7225 -4.4668,10.7035 1.3322,7.101 8.7633,10.588 14.2997,6.7101 z m -12.4587,-11.0548 c -0.853,-2.223 3.8954,-6.3884 7.2825,-6.3884 2.7803,0 7.7686,4.3844 7.1429,6.2784 -0.2503,0.7577 -2.9414,1.3339 -7.0876,1.5175 -5.5469,0.2457 -6.7952,0.01 -7.3378,-1.4075 z m 10.6812,-1.8533 c 0,-1.5957 -3.7894,-2.2135 -6.0164,-0.9808 -2.4246,1.3421 -2.3826,1.3756 1.7664,1.4102 2.3375,0.02 4.25,-0.1737 4.25,-0.4294 z m 16.2,16.2648 c -1.8697,-1.8697 -1.4516,-3.4438 1.9411,-7.3079 3.4328,-3.9097 3.3049,-4.9892 -1.2638,-10.664 -2.5964,-3.2249 -1.8856,-5.828 1.5914,-5.828 1.3922,0 2.5482,0.3375 2.5689,0.75 0.021,0.4125 1.6057,2.55 3.5224,4.75 1.9167,2.2 3.2077,3.2284 2.8691,2.2854 -0.9212,-2.5647 3.1955,-7.7854 6.139,-7.7854 1.8023,0 2.4319,0.5426 2.4319,2.0956 0,2.669 -3.6879,7.9044 -5.5681,7.9044 -2.1254,0 -1.8268,0.6727 2.6599,5.9937 3.0391,3.6042 3.9222,5.3869 3.4326,6.9294 -0.9923,3.1264 -3.9397,2.5067 -7.5307,-1.5832 l -3.2136,-3.66 -3.453,3.66 c -3.782,4.0087 -4.3502,4.2369 -6.1271,2.46 z m 17.7768,-2.05 c -0.013,-0.6875 -1.4752,-2.8926 -3.25,-4.9004 -1.7747,-2.0077 -5.187,-6.1975 -7.5828,-9.3106 -2.3959,-3.1131 -4.6157,-5.4005 -4.9331,-5.0832 -0.3173,0.3173 0.4118,1.8071 1.6203,3.3106 4.6327,5.7637 4.7346,6.7315 1.1809,11.2184 -1.7893,2.2591 -3.0179,4.3428 -2.7303,4.6303 0.2876,0.2876 1.8043,-1.0831 3.3706,-3.046 1.5662,-1.963 3.5226,-3.5594 4.3476,-3.5477 0.825,0.012 2.7667,1.8117 4.3149,4 2.9818,4.2146 3.6994,4.7493 3.6619,2.7286 z m -0.2926,-19.3992 c -0.3877,-0.3876 -1.3609,0.1624 -2.1627,1.2223 -2.25,2.9741 -1.7844,4.1343 0.673,1.677 1.2069,-1.207 1.8773,-2.5116 1.4897,-2.8993 z m 19.8158,21.8192 c -7.5871,-2.5415 -10.9239,-11.582 -7.044,-19.0848 1.4871,-2.8757 6.8725,-6.0881 10.1952,-6.0814 5.0952,0.01 11.85,7.4638 11.1595,12.3139 -0.2867,2.014 -0.9479,2.2047 -8.5741,2.473 -7.6625,0.2695 -8.192,0.4241 -7.2817,2.1251 1.4637,2.7348 4.6775,3.1613 7.441,0.9875 1.3308,-1.0468 3.391,-1.9033 4.5783,-1.9033 1.7483,0 2.0985,0.504 1.8423,2.6511 -0.5274,4.4187 -7.5267,8.1233 -12.3165,6.5189 z m 6.898,-3.3054 c 1.3706,-0.6245 2.7395,-1.7804 3.042,-2.5686 0.3549,-0.9249 -0.3827,-0.6996 -2.0799,0.6354 -1.4464,1.1378 -3.6334,2.0686 -4.8601,2.0686 -3.2606,0 -7.5,-3.7151 -7.5,-6.5725 0,-2.3677 0.1972,-2.4275 8,-2.4275 7.9067,0 8,-0.03 8,-2.5477 0,-1.4706 -1.1187,-3.5845 -2.646,-5 -3.4824,-3.2274 -8.3232,-3.243 -12.0482,-0.039 -2.4018,2.0659 -2.8058,3.1583 -2.8058,7.5866 0,4.4282 0.404,5.5206 2.8058,7.5865 3.0639,2.6355 6.2322,3.0367 10.0922,1.278 z m -11.0968,-11.5221 c -0.4182,-1.0898 0.2968,-2.4601 2.0871,-4 2.9775,-2.5612 6.2278,-2.9575 8.6984,-1.0606 2.0692,1.5886 4.0173,5.2809 3.2115,6.0867 -0.3473,0.3473 -3.4956,0.6314 -6.9962,0.6314 -5.004,0 -6.5007,-0.3544 -7.0008,-1.6575 z m 9.4024,-2.7685 c -1.8142,-1.3758 -5.2763,-1.0743 -6.2782,0.5468 -0.2989,0.4836 1.3957,0.8649 3.7656,0.8475 3.8521,-0.028 4.1185,-0.1763 2.5126,-1.3943 z m 21.6118,17.4191 c -3.6938,-1.4883 -4.3986,-4.2812 -4.0982,-16.2386 l 0.2828,-11.2544 h 2.5 c 2.4755,0 2.505,0.1028 3,10.458 0.48,10.0399 0.5962,10.4806 2.9054,11.0227 3.3318,0.7822 4.8548,3.3984 3.1642,5.4354 -1.4369,1.7314 -4.3507,1.9482 -7.7542,0.5769 z m 4.1846,-2.7167 c -4.0673,-0.9997 -4.5,-2.1919 -4.5,-12.3988 0,-5.9184 -0.4008,-9.8775 -1,-9.8775 -1.3014,0 -1.3221,17.0226 -0.025,20.4348 0.7887,2.0745 1.6016,2.5429 4.25,2.4491 2.1352,-0.076 2.5788,-0.287 1.2747,-0.6076 z m 18.4416,2.7754 c -4.6579,-1.4134 -6.9416,-3.0972 -6.9416,-5.1183 0,-2.8974 2.5607,-3.4353 6.9439,-1.4588 4.0922,1.8454 8.0561,1.3549 8.0561,-0.9967 0,-0.8158 -1.545,-1.6671 -3.75,-2.0663 -8.2971,-1.5023 -11.8949,-5.263 -10.0628,-10.5186 1.1242,-3.225 4.58,-4.893 10.1374,-4.893 4.873,0 8.6754,2.23 8.6754,5.088 0,2.7501 -1.994,3.2302 -6.1695,1.4856 -3.0493,-1.2741 -3.8358,-1.2889 -5.4472,-0.1028 -2.1081,1.5518 -2.0296,1.6052 5.1167,3.4795 4.912,1.2883 5.867,1.9166 7.4341,4.8904 1.904,3.6133 -0.2249,7.6583 -5.0458,9.5873 -4.2953,1.7186 -5.1435,1.7777 -8.9467,0.6237 z m 9.8359,-3.6085 c 2.477,-1.7349 2.9408,-5.6023 0.8772,-7.3149 -0.7399,-0.6141 -2.8774,-1.3588 -4.75,-1.6549 l -3.4047,-0.5385 3.4041,1.2825 c 1.8723,0.7054 3.8973,2.0982 4.5,3.0952 0.8925,1.4761 0.6382,2.188 -1.3692,3.8345 -2.471,2.0266 -6.7558,2.1921 -11.5349,0.4456 -1.2658,-0.4626 -1.0823,-0.168 0.5,0.8027 3.2504,1.9939 8.9659,2.0171 11.7775,0.048 z m -9.7009,-10.8567 c -1.3329,-0.7384 -2.5327,-2.0868 -2.6662,-2.9964 -0.3256,-2.2184 4.0404,-4.9543 6.8415,-4.2871 1.2365,0.2945 3.3731,0.8227 4.7481,1.1737 2.3106,0.5898 2.2807,0.512 -0.3941,-1.0267 -4.8354,-2.7817 -12.6059,-0.562 -12.6059,3.601 0,2.2845 2.6253,4.9599 4.8215,4.9135 1.2226,-0.026 1.0203,-0.4001 -0.7449,-1.378 z m -140.7289,13.1634 c -2.7723,-3.8625 -9.5605,-19.753 -9.0294,-21.137 0.3404,-0.8871 1.6899,-1.6129 2.9989,-1.6129 2.0422,0 3.0401,1.4324 7.0314,10.094 5.3531,11.6167 5.7274,13.9059 2.2739,13.9059 -1.3077,0 -2.7813,-0.5625 -3.2748,-1.25 z m 2.7168,-3 c -2.8505,-7.2391 -8.2253,-17.9225 -8.7518,-17.396 -0.7773,0.7774 7.6828,19.646 8.8087,19.646 0.456,0 0.4304,-1.0125 -0.057,-2.25 z m -137.6845,0.7979 c -0.3064,-0.7986 -0.285,-1.8925 0.048,-2.4309 0.3327,-0.5383 0.1476,-1.2614 -0.4113,-1.6069 -0.559,-0.3454 -1.0164,-2.3912 -1.0164,-4.546 0,-4.6786 3.3372,-7.5982 7.4928,-6.5552 2.368,0.5943 2.5072,1.0059 2.5072,7.4102 0,3.9407 -0.5026,7.2836 -1.2,7.9809 -1.6742,1.6743 -6.7469,1.5019 -7.42,-0.2521 z m 4.62,-9.0479 c 0,-1.3749 -0.45,-2.4999 -1,-2.4999 -0.55,0 -1,1.125 -1,2.4999 0,1.375 0.45,2.5 1,2.5 0.55,0 1,-1.125 1,-2.5 z m 2.6832,-1.6874 c -0.3193,-0.7978 -0.5562,-0.5608 -0.6042,0.6041 -0.043,1.0542 0.1929,1.6448 0.5252,1.3125 0.3323,-0.3323 0.3678,-1.1948 0.079,-1.9166 z m -4.1567,-2.6194 c -0.3079,-0.3079 -1.1148,-7e-4 -1.7931,0.6828 -0.9803,0.9876 -0.8654,1.1024 0.5598,0.5598 0.9862,-0.3756 1.5412,-0.9347 1.2333,-1.2426 z m 54.4735,12.9597 c 0,-1.0924 0.5098,-2.1561 1.1327,-2.3638 0.686,-0.2286 0.8566,-1.2475 0.4326,-2.5833 -0.7961,-2.5085 -2.5653,-2.9805 -2.5653,-0.6843 0,2.0862 -4.2965,3.8719 -7.4262,3.0864 -2.4781,-0.622 -2.5738,-0.9241 -2.5738,-8.1269 0,-6.8143 0.1783,-7.4809 2,-7.4809 1.1111,0 2,0.6666 2,1.5 0,0.825 0.8735,1.5 1.941,1.5 1.0676,0 2.193,0.4077 2.501,0.9061 0.308,0.4983 1.4541,0.6723 2.5469,0.3865 1.2598,-0.3294 2.2134,0.071 2.606,1.0939 0.7797,2.032 2.4051,2.1086 2.4051,0.1135 0,-0.8334 0.8889,-1.5 2,-1.5 2.5476,0 2.4876,1.8392 -0.3099,9.4999 -1.6932,4.6366 -2.7023,6.0726 -4.4406,6.3196 -1.6848,0.2393 -2.2495,-0.179 -2.2495,-1.6667 z m -4.7543,-7.4029 c 0.5965,-1.6219 -0.1577,-3.7499 -1.329,-3.7499 -0.5042,0 -0.9167,1.125 -0.9167,2.4999 0,2.6076 1.4498,3.4145 2.2457,1.25 z m 2.4375,-1.9375 c -0.3193,-0.7977 -0.5562,-0.5607 -0.6042,0.6042 -0.043,1.0542 0.1929,1.6448 0.5252,1.3125 0.3323,-0.3323 0.3678,-1.1948 0.079,-1.9167 z m -90.0091,5.7187 c -3.3973,-3.3973 -0.6985,-11.5311 3.8259,-11.5311 0.825,0 1.5,-0.675 1.5,-1.5 0,-0.8334 0.8889,-1.5 2,-1.5 1.5659,0 2,0.6666 2,3.0714 0,2.7922 0.1429,2.9286 1.5715,1.5 1.8389,-1.8389 3.7823,-1.9877 6.5582,-0.5021 1.4421,0.7719 2.3825,0.7505 3.3792,-0.077 0.7596,-0.6303 2.4137,-0.9991 3.6759,-0.8193 2.6544,0.3779 3.7,3.4961 1.3387,3.9924 -1.316,0.2766 -1.2395,0.5517 0.4429,1.5928 1.8506,1.1452 2.0464,1.0102 2.1752,-1.5 0.078,-1.5172 0.1904,-3.6585 0.25,-4.7585 0.1071,-1.9752 0.6546,-2.5 2.6084,-2.5 1.4394,0 1.2342,2.7388 -0.25,3.3377 -1,0.4035 -1,0.5202 0,0.5834 1.9164,0.121 1.7273,12.0789 -0.1909,12.0789 -0.7926,0 -1.7326,-0.4719 -2.0891,-1.0486 -0.4098,-0.6631 -1.0747,-0.7036 -1.809,-0.1101 -1.8399,1.4872 -14.5499,1.1269 -16.1342,-0.4574 -0.8084,-0.8084 -1.5041,-0.9518 -1.7043,-0.3514 -0.6472,1.9417 -7.3405,2.3066 -9.1484,0.4987 z m 1.671,-2.0743 c -0.3257,-0.8487 -0.8066,-1.3287 -1.0687,-1.0665 -0.2622,0.2621 -0.18,0.9565 0.1825,1.5431 0.9861,1.5955 1.5624,1.2855 0.8862,-0.4766 z m 24.4618,-0.9833 c -0.3079,-0.3079 -0.867,0.2471 -1.2426,1.2333 -0.5427,1.4252 -0.4278,1.5401 0.5598,0.5598 0.6834,-0.6783 0.9907,-1.4852 0.6828,-1.7931 z m 4.9004,-3.7119 c -0.2392,-1.2439 -0.444,-0.4616 -0.4551,1.7383 -0.011,2.2 0.1846,3.2178 0.4349,2.2617 0.2503,-0.9561 0.2594,-2.7561 0.02,-4 z m -25.7073,1.1793 c 0,-2.0863 -1.4711,-2.6057 -2.5296,-0.8931 -0.9071,1.4677 0.3014,4.2112 1.5226,3.4565 0.5539,-0.3423 1.007,-1.4958 1.007,-2.5634 z m 16.4475,1.6443 c -1.0641,-0.7781 -2.1641,-1.0437 -2.4444,-0.5903 -0.2802,0.4535 -1.8581,1.0227 -3.5063,1.265 -1.8649,0.274 -0.9417,0.497 2.4444,0.5902 4.9185,0.1354 5.2553,0.014 3.5063,-1.2649 z m -9.0659,-4.1372 c 0.3415,-0.8899 0.1738,-1.2913 -0.393,-0.941 -0.5437,0.3361 -0.9886,1.0344 -0.9886,1.552 0,1.4384 0.7168,1.1214 1.3816,-0.611 z m 32.3059,8.9061 c -0.3781,-0.3781 -0.6875,-3.0374 -0.6875,-5.9095 0,-5.1974 0.017,-5.2252 3.5758,-5.8929 5.1487,-0.9659 6.5848,0.6176 6.2209,6.8594 -0.2171,3.7249 -0.6987,5.0888 -1.7967,5.0888 -1.0282,0 -1.6759,-1.4152 -2.0592,-4.5 -0.5755,-4.6301 -1.6097,-3.9449 -2.1478,1.4229 -0.2888,2.8816 -1.7633,4.2734 -3.1055,2.9313 z m 6.0417,-9.9583 c -0.3323,-0.3323 -1.1948,-0.3678 -1.9167,-0.079 -0.7977,0.3192 -0.5607,0.5562 0.6042,0.6042 1.0542,0.043 1.6448,-0.193 1.3125,-0.5253 z m 5.5159,9.4492 c -0.6848,-0.6848 -1.2451,-3.1642 -1.2451,-5.5099 0,-3.193 0.4861,-4.5249 1.9343,-5.3 2.713,-1.4519 4.6675,-1.2905 6.4943,0.5363 1.4286,1.4286 1.7143,1.4286 3.1429,0 0.8643,-0.8643 2.2143,-1.5714 3,-1.5714 0.7857,0 1.4285,-0.675 1.4285,-1.5 0,-0.8334 0.8889,-1.5 2,-1.5 1.8212,0 2,0.6666 2,7.4546 v 7.4547 l -3.5109,0.6587 c -3.7004,0.6942 -6.4891,-0.6769 -6.4891,-3.1905 0,-0.9182 -1.0836,-1.3276 -3.25,-1.2277 -3.1098,0.1433 -3.1288,0.168 -0.4405,0.5721 1.9718,0.2964 2.7147,0.9226 2.4918,2.1002 -0.3912,2.0663 -5.7829,2.7962 -7.5562,1.0229 z m 0.4381,-5.0326 c -0.3193,-0.7977 -0.5562,-0.5607 -0.6042,0.6042 -0.043,1.0542 0.1929,1.6448 0.5252,1.3125 0.3323,-0.3323 0.3678,-1.1948 0.079,-1.9167 z m 9.9791,-1.0625 c -0.2774,-0.6874 -0.5044,-0.125 -0.5044,1.25 0,1.375 0.227,1.9375 0.5044,1.25 0.2774,-0.6875 0.2774,-1.8125 0,-2.5 z m 4.3377,0.75 c 0,-1.3749 -0.4018,-2.4999 -0.893,-2.4999 -1.1662,0 -2.2739,2.9207 -1.5512,4.0902 1.0893,1.7625 2.4442,0.8809 2.4442,-1.5903 z m -8.8315,-3.7315 c -0.7421,-0.7421 -0.8722,-0.3516 -0.4372,1.3117 0.3536,1.3522 0.8069,1.8055 1.0565,1.0566 0.2405,-0.7215 -0.038,-1.7872 -0.6193,-2.3683 z m 7.9682,-0.5562 c -0.7214,-0.2405 -1.7871,0.038 -2.3682,0.6193 -0.7421,0.7421 -0.3516,0.8722 1.3117,0.4372 1.3522,-0.3536 1.8055,-0.8069 1.0565,-1.0565 z m 103.7006,8.3299 c -0.9148,-2.0078 -0.7068,-3.4268 1.136,-7.75 2.8013,-6.5714 3.7695,-7.7921 6.1806,-7.7921 3.2525,0 3.1944,2.7322 -0.2237,10.51 -3.4535,7.8583 -5.2307,9.1191 -7.0929,5.0321 z m 4.7615,-5.7921 c 0.9987,-2.3375 2.1581,-5.0375 2.5763,-6 0.4183,-0.9625 0.3804,-1.75 -0.084,-1.75 -0.4646,0 -1.907,2.3625 -3.2053,5.25 -1.2984,2.8875 -2.5163,5.5874 -2.7065,5.9999 -0.1902,0.4125 0.093,0.75 0.6289,0.75 0.5361,0 1.7919,-1.9125 2.7907,-4.2499 z m -1332.93216,-21.4167 c -0.3666,-0.3667 -0.6666,-38.8331 -0.6666,-85.481 v -84.8142 l 2.25,-0.5516 c 1.2375,-0.3034 12.15,-0.4245 24.25,-0.2691 l 22,0.2826 0.1982,9 c 0.3846,17.4631 7.8388,29.6756 22.1818,36.3415 7.7186,3.5873 20.7838,3.7129 29.4168,0.2829 7.5012,-2.9804 15.8321,-11.0264 19.4815,-18.8155 2.3935,-5.1086 2.7217,-7.0147 2.7217,-15.8089 0,-5.5102 0.449,-10.3299 1,-10.7347 1.4653,-1.0765 44.7408,-0.8986 46.4636,0.191 1.2239,0.7741 1.4696,5.317 1.5,27.7347 0.036,26.2307 0.085,26.8775 2.3032,29.987 2.9499,4.1356 7.8525,5.7992 12.9328,4.3885 5.4998,-1.5273 13.7923,-1.3053 18.0825,0.4841 8.4629,3.5298 15.1983,13.7003 15.1983,22.9494 0,14.2318 -13.561,26.1017 -27.3612,23.949 -2.8156,-0.4392 -7.2976,-0.828 -9.96,-0.864 -4.1916,-0.057 -5.2119,0.3498 -7.6084,3.032 -2.3648,2.6467 -2.8731,4.3055 -3.4915,11.3956 -0.3981,4.5639 -0.642,16.4406 -0.542,26.3927 0.1,9.9521 0.137,18.8822 0.082,19.8447 -0.092,1.6159 -1.9624,1.75 -24.4225,1.75 h -24.323 l 0.071,-9.75 c 0.062,-8.5715 -0.2536,-10.4422 -2.6108,-15.4763 -7.4448,-15.8987 -20.1116,-23.6172 -36.9125,-22.4923 -14.7473,0.9873 -26.6975,9.8907 -32.0912,23.9095 -1.5581,4.0496 -2.0243,7.5034 -1.9651,14.5591 l 0.078,9.25 h -23.7947 c -13.087,0 -24.0947,-0.3 -24.4613,-0.6667 z m 45.8518,-6.1995 c -2.0983,-15.256 6.9127,-31.6354 21.6309,-39.3186 6.0683,-3.1678 6.8398,-3.3152 17.3507,-3.3152 9.3226,0 11.7503,0.346 15.9203,2.2691 15.0881,6.9582 24.3219,22.0899 23.403,38.3515 l -0.3887,6.8794 h 22.2827 22.2827 l 0.01,-24.75 c 0,-13.7169 0.4597,-26.3851 1.0243,-28.4178 0.584,-2.1026 2.5764,-5.0354 4.6691,-6.8729 3.577,-3.1406 3.7829,-3.1896 10.2257,-2.4362 12.2712,1.435 16.3983,1.0636 21.5167,-1.9359 12.2402,-7.1733 14.9318,-22.9499 5.7462,-33.6812 -6.265,-7.3193 -13.2993,-9.2007 -25.2054,-6.7415 -4.9983,1.0324 -6.0759,0.9473 -9.4956,-0.75 -7.8917,-3.9168 -7.9474,-4.1482 -8.2963,-34.4855 l -0.3096,-26.929 h -21.8245 -21.824 l -0.3948,9.8288 c -0.3463,8.6228 -0.7938,10.6395 -3.6469,16.4348 -3.827,7.7738 -11.0617,14.8005 -19.1909,18.6392 -4.8328,2.2821 -6.7738,2.5972 -16,2.5972 -9.2263,0 -11.1672,-0.3151 -16,-2.5972 -15.2217,-7.1878 -25.5787,-24.7889 -23.4963,-39.9302 l 0.6732,-4.8944 -21.3385,-0.2891 c -11.7361,-0.159 -21.9009,-0.1285 -22.5884,0.068 -0.9872,0.2819 -1.25,17.8926 -1.25,83.75 v 83.393 h 22.5938 22.5938 z m 1178.98156,-8.678 c -4.9661,-1.8867 -7.9764,-4.7719 -7.1703,-6.8726 0.7996,-2.0837 2.9297,-1.9989 7.4602,0.2969 8.1064,4.108 17.5914,3.5363 22.1689,-1.3363 1.5898,-1.6922 2.4838,-4.0944 2.8179,-7.5713 l 0.4894,-5.0928 -3.7336,2.5337 c -12.587,8.5418 -29.9277,1.2455 -32.0479,-13.4845 -2.5552,-17.7514 16.1878,-29.3578 32.205,-19.9426 3.179,1.8687 3.1905,1.8677 3.5,-0.3057 0.2211,-1.5533 1.1215,-2.2736 3.1299,-2.5038 l 2.8194,-0.3231 -0.3194,22.3231 c -0.3504,24.482 -0.807,26.496 -7.0648,31.1604 -3.6517,2.7219 -18.2608,3.3956 -24.2547,1.1186 z m 21.5928,-2.7671 c 6.7844,-3.5579 7.8091,-7.6112 7.8635,-31.1054 0.024,-10.4042 -0.247,-18.6259 -0.6024,-18.2706 -0.3553,0.3554 -0.755,2.03 -0.888,3.7214 -0.1331,1.6914 -0.5054,3.3387 -0.8275,3.6608 -0.322,0.322 -2.3987,-1.0526 -4.6148,-3.0547 -2.2161,-2.0021 -4.5905,-3.6386 -5.2764,-3.6365 -0.686,0 0.122,0.8387 1.7955,1.8592 1.6734,1.0205 4.2609,3.3033 5.75,5.073 2.2836,2.7139 2.7073,4.1549 2.7073,9.2065 0,3.294 -0.5145,6.9504 -1.1434,8.1255 -0.8578,1.6029 -0.8578,2.2316 0,2.5176 0.706,0.2353 1.142,2.9318 1.1397,7.0478 0,8.0469 -2.0509,12.0156 -7.5383,14.6196 -5.0301,2.3869 -15.7929,1.727 -20.8909,-1.2809 -1.9619,-1.1575 -3.5671,-1.7381 -3.5671,-1.2902 0,0.72 4.7865,3.098 9,4.4713 4.2593,1.3883 12.8705,0.5498 17.0928,-1.6644 z m -13.6885,-15.0959 c -9.7157,-2.3585 -14.4043,-7.9773 -14.4043,-17.2618 0,-5.6772 3.2507,-11.2935 8.3285,-14.3897 1.7443,-1.0636 2.6756,-1.9356 2.0694,-1.9376 -2.3232,-0.01 -7.9743,4.6882 -9.6463,8.0162 -2.3936,4.7641 -2.2749,13.0339 0.2582,17.9993 2.5335,4.9659 9.506,8.8074 15.9902,8.8098 1.375,5e-4 0.207,-0.5558 -2.5957,-1.2362 z m 8.3249,-0.197 c -0.3323,-0.3323 -1.1948,-0.3678 -1.9167,-0.079 -0.7977,0.3192 -0.5607,0.5562 0.6042,0.6042 1.0542,0.043 1.6448,-0.193 1.3125,-0.5253 z m 3.7638,-1.3844 c 0.3503,-0.5669 -0.051,-0.7345 -0.941,-0.393 -1.7324,0.6648 -2.0494,1.3816 -0.611,1.3816 0.5176,0 1.2159,-0.4449 1.552,-0.9886 z m -1.5778,-2.763 c 8.9325,-4.5731 9.3656,-19.087 0.7384,-24.7398 -8.3261,-5.4555 -20.8065,-0.7161 -23.1971,8.8089 -1.4947,5.9553 2.5963,14.5429 7.962,16.7136 3.565,1.4422 10.9274,1.0447 14.4967,-0.7827 z m 5.2124,0 c 1.2439,-1.5861 1.2085,-1.6214 -0.3776,-0.3776 -0.9625,0.7549 -1.75,1.5424 -1.75,1.75 0,0.8231 0.8212,0.2934 2.1276,-1.3724 z m -10.8638,-29.9539 c -1.2299,-0.2374 -3.4799,-0.2435 -5,-0.014 -1.5201,0.2298 -0.5138,0.424 2.2362,0.4315 2.75,0.01 3.9937,-0.1805 2.7638,-0.4179 z m -199.02966,38.8894 -3.266,-0.3146 0.266,-27.1854 0.2659,-27.1855 h 14.5348 c 12.1611,0 15.226,0.3119 18.7671,1.9096 8.4838,3.8278 11.0433,14.2804 5.1424,21.0011 l -3.0557,3.4803 2.9209,1.5104 c 8.0065,4.1404 8.0856,17.9768 0.1351,23.6381 -2.6994,1.9222 -4.8041,2.3954 -11.8631,2.6677 -4.7198,0.182 -11.2815,0.4348 -14.5815,0.5619 -3.3,0.127 -7.4696,0.089 -9.2659,-0.084 z m 14.5159,-2.9331 c -7.5625,-0.1698 -13.762,-0.6336 -13.7767,-1.0306 -0.098,-2.6356 -0.1554,-19.1562 -0.074,-21.083 l 0.1002,-2.3612 14.2858,0.3694 c 12.6784,0.3278 14.2857,0.1864 14.2857,-1.2575 0,-1.3357 -0.5423,-1.4715 -3.0291,-0.7582 -1.6661,0.4778 -8.0643,0.8687 -14.2184,0.8687 -9.8141,0 -11.2458,-0.2151 -11.6502,-1.75 -0.3547,-1.3468 -0.17,-16.2027 0.2546,-20.4701 0.039,-0.3961 5.8091,-0.8608 12.8216,-1.0327 l 12.75,-0.3125 -13.75,-0.2174 -13.75,-0.2173 v 25 25 l 14.75,-0.2193 14.75,-0.2194 z m 19.3165,-1.9507 c 3.9412,-2.3281 6.0481,-7.8556 4.9156,-12.8963 -0.8464,-3.7678 -4.8523,-8.4054 -7.2603,-8.4054 -0.6417,0 -0.054,0.7669 1.3057,1.7041 3.8891,2.6804 4.9077,4.4992 4.926,8.7959 0.023,5.2953 -1.7019,8.3864 -5.9379,10.6434 -1.9164,1.0211 -2.8858,1.8566 -2.1543,1.8566 0.7316,0 2.6239,-0.7643 4.2052,-1.6983 z m -2.726,-2.604 c 5.5208,-3.6198 5.7419,-11.0539 0.4463,-15.0076 -2.2848,-1.7058 -4.6901,-2.0854 -15.7418,-2.4845 l -13.045,-0.4711 v 10.2332 10.2332 l 12.7958,-0.3505 c 10.2295,-0.2801 13.3471,-0.7119 15.5447,-2.1527 z m -1.2572,-26.4649 c 4.7013,-5.2616 3.5648,-11.2284 -2.6316,-13.8175 -2.1934,-0.9164 -7.0999,-1.4153 -13.9195,-1.4153 h -10.5322 v 9.6053 9.6054 l 12.0833,-0.3568 12.0833,-0.3567 z m 3.4167,1.7672 c 0.9955,-1.1 1.585,-2 1.31,-2 -0.275,0 -1.3145,0.9 -2.31,2 -0.9954,1.1 -1.5849,2 -1.3099,2 0.275,0 1.3145,-0.9 2.3099,-2 z m 2.9941,-10.035 c -0.7019,-4.1546 -5.1716,-8.9683 -8.3208,-8.9613 -1.0482,0 -0.4831,0.7295 1.5129,1.9465 4.0653,2.4788 5.3063,4.8554 5.3442,10.2341 0.025,3.4978 0.2292,3.9741 1.0791,2.5133 0.594,-1.0211 0.7608,-3.5062 0.3846,-5.7326 z m 20.8389,41.9958 c -7.8888,-2.4286 -11.2193,-13.3684 -5.8371,-19.1729 3.2179,-3.4704 8.0983,-4.7754 17.885,-4.7823 l 7.8808,-0.01 -0.5988,-3.6902 c -0.8393,-5.172 -3.5481,-7.5017 -9.3294,-8.024 -3.7512,-0.3388 -5.8964,0.1093 -9.5804,2.0012 -3.875,1.9901 -5.053,2.2142 -6.4125,1.22 -4.4753,-3.2723 4.9018,-8.7224 15.1737,-8.8191 4.667,-0.044 7.0116,0.474 9.7175,2.1463 5.6105,3.4675 6.7682,7.6901 6.7682,24.686 v 14.4798 h -3 c -2.348,0 -3,-0.4411 -3,-2.03 0,-2.0272 0,-2.0272 -2.8179,0.054 -3.2689,2.4168 -12.0225,3.4233 -16.8491,1.9373 z m 1.0453,-3.3977 c -8.1283,-3.5377 -8.3533,-13.3261 -0.3783,-16.4554 1.8659,-0.7321 2.0367,-0.997 0.6731,-1.0443 -2.8583,-0.099 -7.6787,5.3347 -7.6376,8.6097 0.065,5.1593 4.5275,10.2633 8.9645,10.2523 0.825,0 0.095,-0.6151 -1.6217,-1.3623 z m 20.4362,-4.5631 c 0.7162,0 1.2156,-1.6826 1.2614,-4.25 0.3017,-16.896 -0.8322,-22.4788 -5.0205,-24.7204 -3.1468,-1.6841 -3.0385,-1.2127 0.5446,2.3704 2.8812,2.8812 3.4,4.102 3.4,8 0,2.9111 -0.4405,4.6 -1.2,4.6 -0.9333,0 -0.9333,0.2667 0,1.2 0.66,0.66 1.2,3.2261 1.2,5.7024 0,3.6872 -0.5884,5.143 -3.25,8.0405 -1.9351,2.1067 -2.2124,2.6317 -0.6855,1.2976 1.4104,-1.2323 3.0979,-2.2405 3.75,-2.2405 z m -5.2145,-0.4 c 2.6488,-2.6488 3.4,-4.2224 3.4,-7.1223 v -3.7223 l -9.0317,0.4318 c -10.1195,0.4838 -13.2183,2.2198 -13.2183,7.4052 0,4.2189 3.4024,6.4076 9.9608,6.4076 4.9093,0 5.8484,-0.3592 8.8892,-3.4 z m -4.85,-30.3163 c -1.5125,-0.2291 -3.9875,-0.2291 -5.5,0 -1.5125,0.2292 -0.275,0.4166 2.75,0.4166 3.025,0 4.2625,-0.1874 2.75,-0.4166 z m 38.0141,38.7788 c -12.6888,-4.0907 -18.4219,-18.383 -12.2811,-30.6162 5.8314,-11.617 21.81206,-14.7588 31.26696,-6.147 5.0402,4.5907 1.027,7.8137 -4.5735,3.673 -4.254,-3.1451 -9.14766,-3.521 -14.57636,-1.1196 -3.8492,1.7027 -5.0455,2.9001 -6.7522,6.7583 -5.2071,11.7716 2.2219,23.1394 14.43476,22.088 3.1553,-0.2716 5.5918,-1.1718 7.1608,-2.6458 2.8522,-2.6796 5.9377,-2.3638 6.3688,0.6516 0.716,5.008 -13.2229,9.8806 -21.04816,7.3577 z m 16.99646,-5.4768 2.7394,-2.8477 -3.3303,2.381 c -2.3271,1.6637 -5.3396,2.5786 -10,3.0369 l -6.66966,0.6559 7.26056,-0.1892 c 6.5503,-0.1707 7.5285,-0.4678 10,-3.0369 z m -21.27676,-0.7341 c -1.9723,-1.7317 -4.255,-4.4424 -5.0729,-6.0239 -1.9811,-3.8311 -2.0073,-12.7736 -0.048,-16.5616 1.673,-3.2354 7.078,-8.2661 8.8809,-8.2661 0.5995,0 0.7991,-0.2908 0.4436,-0.6463 -1.2644,-1.2645 -8.4048,4.5306 -10.2355,8.3071 -2.3109,4.767 -2.3833,13.6552 -0.1464,17.9701 1.6641,3.2099 7.0929,8.3691 8.8065,8.3691 0.5269,0 -0.6556,-1.4168 -2.6278,-3.1484 z m 23.51616,-27.2292 c 0,-0.2076 -0.7875,-0.9951 -1.75,-1.75 -1.586,-1.2438 -1.6214,-1.2085 -0.3775,0.3776 1.3064,1.6658 2.1275,2.1955 2.1275,1.3724 z m -7,-4.6224 c -0.825,-0.5332 -3.75,-0.9029 -6.5,-0.8217 l -4.99996,0.1477 5.49996,0.674 c 3.025,0.3707 5.95,0.7405 6.5,0.8217 0.55,0.081 0.325,-0.2885 -0.5,-0.8217 z m 150.2593,37.3408 c -7.5222,-2.663 -13.2593,-11.7945 -13.2593,-21.1043 0,-4.3195 5.0284,-13.4221 8.7906,-15.9131 4.56,-3.0192 11.1597,-4.2613 16.9221,-3.1848 15.9335,2.9767 21.7301,23.6818 9.9328,35.4791 -6.1909,6.1909 -13.7407,7.7838 -22.3862,4.7231 z m 6.2407,-1.8323 c -0.55,-0.1834 -2.2028,-0.5978 -3.6729,-0.9207 -3.7759,-0.8295 -8.6427,-5.2107 -10.3636,-9.3296 -3.4549,-8.2685 -0.3973,-18.3857 6.8734,-22.7438 2.3685,-1.4198 3.4238,-2.4996 2.4479,-2.5049 -2.4759,-0.014 -8.8537,5.9112 -10.4337,9.6928 -1.7797,4.2594 -1.7167,11.4869 0.139,15.928 2.1768,5.2101 8.9284,10.3351 13.5099,10.2553 1.375,-0.024 2.05,-0.1936 1.5,-0.3771 z m 8.5,-0.5542 c 1.0955,-0.7413 0.691,-0.8341 -1.5,-0.344 -3.6769,0.8225 -4.4751,1.3948 -1.9166,1.3744 1.0541,-0.01 2.5916,-0.4721 3.4166,-1.0304 z m 7.8483,-5.4886 c 2.4385,-3.1 4.3945,-11.6076 3.5129,-15.2793 -1.2565,-5.2334 -4.3449,-10.0132 -7.8827,-12.1997 -1.971,-1.2182 -3.86,-1.9385 -4.1977,-1.6008 -0.3378,0.3378 -0.1236,0.6141 0.4758,0.6141 2.0546,0 7.3164,5.239 8.78,8.7418 1.7357,4.1541 1.9197,12.4998 0.3434,15.5739 -0.616,1.2014 -2.5285,3.7032 -4.25,5.5597 -2.4224,2.6124 -2.6388,3.1225 -0.9575,2.2564 1.1948,-0.6156 3.074,-2.2653 4.1758,-3.6661 z m -7.8483,1.7828 c 3.9653,-1.9809 8,-8.8625 8,-13.6447 0,-5.015 -3.5789,-10.9989 -8.0973,-13.5383 -9.7766,-5.4948 -21.2873,2.0086 -21.2873,13.8763 0,11.3874 11.2337,18.3776 21.3846,13.3067 z m -3.7362,-31.9524 c -1.2299,-0.2374 -3.4799,-0.2435 -5,-0.014 -1.5201,0.2298 -0.5138,0.424 2.2362,0.4315 2.75,0.01 3.9937,-0.1805 2.7638,-0.4179 z m 37.2362,38.4977 c -1.65,-0.5766 -4.0705,-2.0036 -5.3788,-3.1711 -4.315,-3.8503 -5.1212,-7.4955 -5.1212,-23.157 v -14.5985 l 2.75,0.3164 2.75,0.3164 0.5,14.8354 0.5,14.8354 3.2658,2.9146 c 4.0266,3.5936 10.0267,3.9482 15.0444,0.889 5.0497,-3.0787 6.1898,-7.0283 6.1898,-21.4423 v -12.5321 h 3 3 v 20.5 20.5 h -3 c -2.5854,0 -3,-0.3695 -3,-2.6743 v -2.6743 l -2.3398,2.1982 c -4.118,3.8686 -11.903,5.1307 -18.1602,2.9442 z m 2.7562,-2.7686 c -7.6704,-1.8209 -9.5199,-5.957 -10.2957,-23.0252 l -0.6136,-13.5 -0.1734,12.7298 c -0.1313,9.6346 0.2138,13.6976 1.4193,16.7105 1.7733,4.4319 6.545,8.0726 10.4072,7.9405 2.1231,-0.073 2.011,-0.2016 -0.7438,-0.8556 z m 8.9938,0.3125 c -0.6875,-0.2774 -1.8125,-0.2774 -2.5,0 -0.6875,0.2774 -0.125,0.5044 1.25,0.5044 1.375,0 1.9375,-0.227 1.25,-0.5044 z m 12.75,-17.3377 c 0,-21.1024 -1.6872,-24.5395 -2.1725,-4.4256 l -0.3275,13.5743 -4.2112,3.9257 c -2.3162,2.1591 -3.9127,3.9256 -3.5476,3.9256 0.365,0 2.1087,-1.4006 3.8748,-3.1124 3.631,-3.5193 5.384,-3.1379 5.384,1.1714 0,1.6176 0.225,2.941 0.5,2.941 0.275,0 0.5,-8.1 0.5,-18 z m 77,19.8251 c -4.9487,-1.4063 -9.6858,-5.289 -12.0092,-9.8432 -2.8802,-5.6457 -2.7263,-15.2746 0.3369,-21.0746 5.1318,-9.7169 18.3293,-13.2286 28.1298,-7.4851 l 4.4744,2.6222 0.2841,-10.7722 c 0.2834,-10.7479 0.2897,-10.7722 2.784,-10.7722 h 2.5 l 0.2654,28.75 0.2653,28.75 h -3.0153 c -2.571,0 -3.0154,-0.3784 -3.0154,-2.5681 v -2.5681 l -2.75,1.9152 c -5.7589,4.0106 -11.4896,4.9671 -18.25,3.0461 z m 2.4791,-2.7543 c -8.2163,-1.9705 -13.0233,-8.5287 -12.8789,-17.5708 0.1687,-10.5639 6.6855,-17.3195 17.036,-17.66 3.9589,-0.1303 4.2251,-0.2376 1.431,-0.577 -5.4623,-0.6635 -9.84,0.5987 -13.6357,3.9313 -8.3106,7.2968 -8.6746,20.6133 -0.7634,27.9219 3.8476,3.5544 6.3657,4.8364 9.3319,4.751 2.251,-0.065 2.1992,-0.1441 -0.5209,-0.7964 z m 8.79,0.2733 c -0.6771,-0.274 -2.0271,-0.2906 -3,-0.037 -0.973,0.2535 -0.4191,0.4776 1.2309,0.498 1.65,0.02 2.4461,-0.1871 1.7691,-0.461 z m 13.6214,-26.0941 c -0.079,-19.3564 -0.3677,-25.5062 -1.0433,-22.25 -0.5135,2.475 -0.7983,7.9875 -0.633,12.25 0.1728,4.4538 -0.1045,7.75 -0.652,7.75 -0.524,0 -2.3273,-1.2375 -4.0074,-2.75 l -3.0548,-2.75 2.6279,3 c 1.4452,1.65 3.1701,4.0526 3.8329,5.3392 1.7598,3.416 1.5701,12.2335 -0.3428,15.9327 -1.4138,2.7339 -1.4318,3.0939 -0.1298,2.5943 0.9428,-0.3618 1.5589,0.025 1.6368,1.0268 0.069,0.8839 0.2375,2.057 0.375,2.607 0.1375,0.55 0.3063,1.675 0.375,2.5 0.069,0.825 0.35,1.5 0.625,1.5 0.275,0 0.4507,-12.0375 0.3905,-26.75 z m -7.7629,23 c 1.2439,-1.5861 1.2085,-1.6214 -0.3776,-0.3776 -0.9625,0.7549 -1.75,1.5424 -1.75,1.75 0,0.8231 0.8212,0.2934 2.1276,-1.3724 z m -3.0254,-1.5199 c 11.8705,-7.9301 7.5466,-27.0001 -6.4435,-28.4178 -15.426,-1.5632 -21.8922,20.4777 -8.4178,28.6931 4.4288,2.7003 10.5776,2.5864 14.8613,-0.2753 z m -295.1022,-21.1047 c 0,-18.0948 0.3686,-28.7351 1.009,-29.1309 0.5549,-0.343 1.9049,-0.3392 3,0.01 1.8937,0.601 1.991,1.5379 1.991,19.1666 v 18.5346 l 11.3676,-10.602 c 8.3396,-7.778 12.0531,-10.6021 13.941,-10.6021 1.4154,0 2.8202,0.3993 3.1217,0.8873 0.3016,0.488 -3.0268,4.3767 -7.3965,8.6415 l -7.9449,7.7544 8.4556,10.3568 c 4.6505,5.6963 8.4555,11.0326 8.4555,11.8584 0,0.9876 -0.985,1.5016 -2.8772,1.5016 -2.4586,0 -4.0139,-1.4582 -10.6895,-10.0222 l -7.8123,-10.0222 -4.2655,4.1862 c -3.8832,3.8112 -4.2919,4.6869 -4.5605,9.7723 -0.278,5.2656 -0.4527,5.6041 -3.045,5.9024 l -2.75,0.3164 z m 8.2817,10.9094 c 2.8512,-2.4941 5.8776,-4.5348 6.7254,-4.5348 0.8477,0 3.4353,2.5875 5.7501,5.75 4.5596,6.2294 12.8542,15.6901 11.6169,13.25 -0.4184,-0.825 -4.0487,-5.6014 -8.0674,-10.6143 -4.0187,-5.0128 -7.3067,-9.7005 -7.3067,-10.4171 0,-0.7165 3.2625,-4.4185 7.25,-8.2266 9.1587,-8.7466 3.1647,-4.1447 -8.6448,6.6372 -4.8922,4.4664 -9.6172,8.1208 -10.5,8.1208 -1.3985,0 -1.6738,-2.4463 -2.1386,-19 -0.5073,-18.0678 -0.5348,-17.6754 -0.5609,8 -0.015,14.85 0.1344,24.4282 0.3323,21.2848 0.3444,-5.4708 0.5815,-5.9091 5.5437,-10.25 z m 85.7183,-3.1012 v -20.5664 l 2.75,0.3164 c 1.9386,0.223 2.8416,0.9593 3.0603,2.4954 l 0.3102,2.179 3.5793,-2.429 c 2.2611,-1.5344 5.0011,-2.429 7.4398,-2.429 3.3957,0 3.8604,0.2856 3.8604,2.3722 0,1.9673 -0.64,2.4752 -3.75,2.9755 -9.0465,1.4553 -11.25,5.9707 -11.25,23.0534 v 12.5989 h -3 -3 z m 4,6.0007 c 0,-6.9112 0.453,-13.4122 1.0066,-14.4466 0.7456,-1.3932 0.6367,-2.0892 -0.4201,-2.6843 -0.7847,-0.4419 -1.6156,-2.3784 -1.8465,-4.3034 -0.231,-1.925 -0.4919,4.9375 -0.5799,15.25 -0.1019,11.94 0.2031,18.75 0.8399,18.75 0.6137,0 1,-4.8552 1,-12.5657 z m 8.5,-22.2639 c 1.1,-0.6103 1.4626,-1.1233 0.8058,-1.14 -0.6568,-0.017 -2.2539,0.9821 -3.549,2.2196 -1.2951,1.2375 -1.6577,1.7505 -0.8058,1.14 0.852,-0.6105 2.449,-1.6093 3.549,-2.2196 z m 5.2292,-1.7746 c -0.3323,-0.3323 -1.1948,-0.3678 -1.9167,-0.079 -0.7977,0.3193 -0.5607,0.5562 0.6042,0.6042 1.0542,0.043 1.6448,-0.1929 1.3125,-0.5252 z m 108.2708,18.1042 v -20.5 h 2.3931 c 2.7257,0 3.7168,1.7465 2.9245,5.1536 l -0.5457,2.3464 1.6748,-2.2557 c 4.1501,-5.5898 15.9959,-7.5111 22.571,-3.661 6.8579,4.0157 7.4472,5.795 7.8022,23.5594 l 0.3198,16.0036 -2.8198,-0.3231 -2.8199,-0.3232 -0.5,-14.7311 c -0.4843,-14.2694 -0.5824,-14.8134 -3.1323,-17.3595 -3.5356,-3.5306 -10.0459,-4.2467 -14.8677,-1.6353 -5.7968,3.1394 -6.9966,6.8213 -6.9984,21.4759 v 12.75 h -3 -3 z m 3.7189,5.1134 c 0.01,-6.3229 0.5041,-12.1616 1.1303,-13.3316 0.874,-1.6331 0.8085,-2.1992 -0.3038,-2.626 -0.7799,-0.2993 -1.596,-2.2568 -1.8136,-4.35 -0.2175,-2.0932 -0.4643,4.7442 -0.5483,15.1942 -0.085,10.4998 0.2212,18.4102 0.6831,17.6816 0.4598,-0.7251 0.8433,-6.3808 0.8523,-12.5682 z m 29.3876,-16.1057 c -2.3143,-5.2318 -6.7908,-7.589 -13.9786,-7.3607 l -4.6279,0.147 5.5,0.6339 c 11.4407,1.3185 13.2426,4.2936 13.9742,23.0721 l 0.5258,13.5 0.2802,-12.7876 c 0.2391,-10.9128 -0.01,-13.4352 -1.6737,-17.2047 z m -24.6065,-2.5077 c 0.9955,-1.1 1.585,-2 1.31,-2 -0.275,0 -1.3145,0.9 -2.31,2 -0.9954,1.1 -1.5849,2 -1.3099,2 0.275,0 1.3145,-0.9 2.3099,-2 z m 5.0265,-3.8069 c -0.3079,-0.3079 -1.1148,-6e-4 -1.7931,0.6828 -0.9803,0.9876 -0.8654,1.1025 0.5598,0.5598 0.9862,-0.3755 1.5412,-0.9347 1.2333,-1.2426 z m -215.5265,-79.6931 v -27.5 h 12.8185 c 14.7225,0 21.4186,1.5127 25.3497,5.7265 4.0573,4.3491 4.8318,6.6329 4.8318,14.2476 0,13.755 -5.732,19.1103 -21.249,19.8521 l -8.751,0.4184 v 7.3777 7.3777 h -6.5 -6.5 z m 11,18 0.5,-7 8.5607,-0.653 c 9.6337,-0.7348 15.2011,-2.9101 18.3515,-7.1703 1.6609,-2.246 2.0878,-4.2909 2.0878,-10 0,-9.2893 -1.6177,-12.4916 -7.8783,-15.5946 -4.179,-2.0713 -6.7235,-2.4846 -17.75,-2.8827 l -12.8717,-0.4648 v 25.6902 25.6902 l 4.25,-0.3075 4.25,-0.3075 z m 0.4255,-16.8336 c -0.2814,-0.7335 -0.3798,-5.121 -0.2186,-9.75 l 0.2931,-8.4164 6.2095,-0.2966 c 10.5911,-0.506 13.9236,2.6234 13.409,12.592 -0.065,1.2625 -1.223,3.4 -2.573,4.75 -2.1436,2.1436 -3.351,2.4546 -9.5314,2.4546 -4.9755,0 -7.2288,-0.396 -7.5886,-1.3336 z m 13.2391,-1.729 c 3.5478,-1.3489 4.3011,-2.5752 4.3201,-7.0324 0.022,-5.1138 -2.6652,-7.1819 -10.0221,-7.7141 l -5.9626,-0.4312 v 8.1201 8.1202 h 4.4349 c 2.4392,0 5.6926,-0.4782 7.2297,-1.0626 z m 37.8269,26.1976 c -5.0415,-2.2903 -10.0662,-7.942 -11.4313,-12.8577 -0.577,-2.0775 -1.0515,-11.9898 -1.0546,-22.0273 l -0.01,-18.25 h 6.3834 c 7.8729,0 7.5846,-0.7507 7.603,19.7996 0.016,17.4586 0.8384,20.3274 6.3522,22.1471 3.9326,1.2979 7.1926,0.3566 10.1614,-2.9339 1.8003,-1.9953 2.05,-4.029 2.5,-20.3647 l 0.5,-18.1481 6.75,-0.2957 6.75,-0.2956 v 18.1796 c 0,10.7297 -0.4677,19.7409 -1.1414,21.9894 -1.5654,5.225 -6.4057,10.8121 -11.2878,13.0295 -5.4782,2.4881 -16.6327,2.5022 -22.0793,0.028 z m 21.6,-2.9141 c 4.2147,-2.2018 5.8483,-3.8049 7.8642,-7.7172 2.4007,-4.6592 2.5621,-5.9457 2.8581,-22.7815 l 0.3138,-17.8434 -4.3138,0.3106 -4.3138,0.3106 -0.5053,16.5 c -0.4367,14.259 -0.7837,16.975 -2.5548,19.9977 -2.6998,4.608 -5.8956,6.1887 -11.4069,5.6421 -8.8218,-0.875 -11.0193,-6.4326 -11.0274,-27.8898 l -0.01,-14.75 h -4.5953 -4.5954 l 0.37,18.25 c 0.3338,16.469 0.5849,18.6565 2.5727,22.4158 5.2395,9.9087 18.3645,13.2885 29.3395,7.5551 z m 20.5935,4.1307 c -0.3767,-0.3767 -0.685,-2.5528 -0.685,-4.8358 0,-4.3778 1.3423,-6.3105 20.6711,-29.7658 l 6.3866,-7.75 h -13.0787 -13.0788 l 0.2999,-5.75 0.2999,-5.75 22.25,-0.2691 22.25,-0.2691 v 4.9083 c 0,4.7849 -0.3144,5.3003 -12.5,20.4919 -6.875,8.571 -12.5,15.8209 -12.5,16.1108 0,0.29 5.3449,0.5272 11.8776,0.5272 13.7509,0 14.3971,0.3559 13.9304,7.6723 l -0.308,4.8277 -22.565,0.2683 c -12.4108,0.1476 -22.8733,-0.04 -23.25,-0.4167 z m 43.1254,-5.6016 0.3104,-3.75 h -13.0918 c -10.1018,0 -13.2107,-0.3099 -13.6125,-1.3571 -0.295,-0.7687 5.3584,-8.6817 13.0386,-18.25 11.4142,-14.2204 13.5186,-17.3675 13.3021,-19.8929 l -0.2572,-3 h -20 -20 l -0.3103,3.75 -0.3104,3.75 h 13.0014 c 7.1507,0 13.2497,0.4019 13.5533,0.8931 0.3035,0.4912 -3.1628,5.5537 -7.7031,11.25 -4.5403,5.6963 -10.8371,13.6654 -13.9929,17.7091 -5.5635,7.1287 -7.104,11.4182 -4.488,12.4962 0.6875,0.2833 10.025,0.4333 20.75,0.3333 l 19.5,-0.1817 z m 7.9745,5.0185 c -0.9712,-2.7795 -0.01,-8.6824 1.8003,-11.0488 1.0532,-1.3772 6.9798,-8.8525 13.1704,-16.6119 l 11.2555,-14.1078 h -12.4465 c -7.5846,0 -12.6991,-0.4086 -13.093,-1.0461 -0.3556,-0.5753 -0.34,-3.2753 0.035,-6 l 0.6813,-4.9539 h 21.9062 21.9061 l -0.023,5.25 c -0.023,5.214 -0.1091,5.3564 -12.5062,20.75 l -12.4827,15.5 12.7562,0.5 12.7561,0.5 v 6 6 l -22.6359,0.2685 c -17.5783,0.2085 -22.7349,-0.015 -23.0792,-1 z m 42.7325,-1.7966 c 0.3495,-0.5654 0.8031,-2.3529 1.008,-3.9721 l 0.3726,-2.944 -13.617,-0.2779 c -8.0592,-0.1645 -13.7544,-0.6916 -13.9535,-1.2914 -0.2985,-0.899 7.396,-10.9896 21.9943,-28.8434 3.8291,-4.683 4.7278,-6.4869 4.4836,-9 l -0.3054,-3.1431 -19.75,-0.2711 -19.75,-0.2711 v 4.0211 4.0211 h 12.441 c 6.8426,0 12.7069,0.4303 13.0319,0.9562 0.3251,0.5259 -5.4984,8.6111 -12.9409,17.9673 -11.612,14.5975 -13.532,17.5123 -13.532,20.5438 v 3.5327 h 19.941 c 12.5785,0 20.1756,-0.3796 20.5764,-1.0281 z m 11.9339,1.7617 c -0.2673,-0.6965 -0.3657,-12.9591 -0.2186,-27.25 l 0.2673,-25.9836 h 6.5 6.5 l 0.2703,20.75 0.2703,20.75 h 10.9797 10.9797 v 6.5 6.5 h -17.5313 c -13.2239,0 -17.6508,-0.3112 -18.0174,-1.2664 z m 33.3562,-5.4836 0.3075,-4.25 h -11.0575 -11.0575 v -21.0548 -21.0547 l -4.5734,0.3047 -4.5734,0.3048 0.1062,24.3986 c 0.059,13.4192 0.3504,24.7936 0.6487,25.2763 0.2984,0.4827 7.1461,0.7534 15.2172,0.6014 l 14.6747,-0.2763 z m 9.6519,5.5048 c -0.2717,-0.7082 -0.3738,-12.9803 -0.2267,-27.2712 l 0.2673,-25.9836 h 19.5 19.5 l 0.2999,5.75 c 0.2185,4.1884 -0.053,5.762 -1,5.7941 -0.7149,0.024 -6.4749,0.1368 -12.7999,0.25 l -11.5,0.2059 -0.3058,4.2167 -0.3059,4.2167 11.3059,0.2833 11.3058,0.2833 0.2999,5.75 c 0.2184,4.1868 -0.053,5.7632 -1,5.7984 -0.7149,0.027 -5.7999,0.1392 -11.2999,0.25 l -10,0.2016 -0.306,4.2206 -0.3061,4.2206 13.3061,0.2794 13.306,0.2794 v 6 6 l -19.7732,0.2712 c -15.4025,0.2113 -19.8825,-0.013 -20.2674,-1.0164 z m 37.5543,-2.5048 c 0.01,-0.9625 0.285,-2.7625 0.6166,-4 0.6029,-2.2498 0.6017,-2.25 -12.5384,-2.25 h -13.1414 l -0.9752,-2.5651 c -1.1023,-2.8993 -1.274,-7.4929 -0.3683,-9.8531 0.5044,-1.3143 2.5336,-1.5818 12,-1.5818 h 11.393 v -3.5 -3.5 h -10.9648 c -12.159,0 -13.0352,-0.4705 -13.0352,-7 0,-6.6625 0.7037,-7 14.5956,-7 h 12.5252 l -0.3104,-3.75 -0.3104,-3.75 -17.75,-0.273 -17.75,-0.2731 v 25.523 25.5231 h 18 c 16.471,0 18.0012,-0.1486 18.0137,-1.75 z m -689.26777,-4.3357 c -10.3738,-2.4449 -20.63629,-11.0856 -25.43369,-21.4143 -2.3934,-5.1527 -2.7887,-7.2709 -2.7996,-15 -0.01,-4.95 0.375,-10.6875 0.8487,-12.75 l 0.8613,-3.75 h -25.8888 c -27.7644,0 -28.6263,-0.1447 -31.5761,-5.3013 -0.8768,-1.5328 -1.4091,-9.7698 -1.7577,-27.1987 -0.4869,-24.3442 -0.5525,-24.989 -2.5,-24.5804 -1.1,0.2308 -6.95,0.4558 -13,0.5 -10.6773,0.078 -11.1834,-0.019 -17.2521,-3.31 -7.5946,-4.1185 -13.5323,-10.3504 -17.0875,-17.9344 -2.3248,-4.9593 -2.6604,-6.9365 -2.6604,-15.6752 0,-8.9249 0.3119,-10.6754 2.9009,-16.282 7.4203,-16.0687 25.9502,-25.0236 43.3491,-20.9493 l 6.25,1.4636 v -24.3983 c 0,-26.1861 0.5154,-29.4803 5.1169,-32.7033 1.9817,-1.3881 5.6139,-1.6307 24.4145,-1.6307 25.7699,0 26.6148,-0.231 24.6632,-6.7449 -4.1213,-13.7556 2.1051,-30.3267 14.9472,-39.7805 8.45319,-6.2229 14.59109,-7.8285 27.7814,-7.267 9.1341,0.3888 11.3867,0.8487 16.51431,3.3713 11.44589,5.631 20.82589,18.4059 22.23199,30.2782 0.3447,2.9099 0.043,7.7861 -0.6978,11.2765 -1.8893,8.9025 -1.9778,8.8664 21.7353,8.8664 h 19.3247 l -0.2658,-27.75 -0.2659,-27.75 -3.5,0.2767 c -13.2541,1.0476 -17.5149,0.6904 -23.1553,-1.941 -21.293,-9.9337 -26.336,-40.0538 -9.5321,-56.9312 6.1752,-6.2023 12.616,-8.8828 21.3723,-8.8947 3.9517,-0 8.394,0.4499 9.8717,1.0117 5.2431,1.9934 5.3597,1.3786 5.6642,-29.8697 l 0.2792,-28.6518 -21.9997,0.5 -21.9997,0.5 -3e-4,11.5094 c -3e-4,10.9878 -0.1492,11.8124 -3.2871,18.1974 -5.5861,11.3669 -16.04489,18.7469 -29.7973,21.0257 -23.44551,3.8851 -45.7662,-12.072 -47.1876,-33.7341 -0.2527,-3.851 -0.013,-8.6187 0.5327,-10.5949 1.8972,-6.8712 1.7926,-6.9035 -22.3604,-6.9035 -17.1187,0 -22.0888,-0.3045 -24.3896,-1.4943 -5.9529,-3.0783 -6.0124,-3.4061 -5.9957,-32.9782 0.01,-14.8651 0.3459,-27.5226 0.75,-28.1278 1.8585,-2.7834 5.3664,-3.6227 9.8703,-2.3617 5.5004,1.54 15.862,0.7903 20.2193,-1.463 21.0348,-10.8774 21.4235,-38.9529 0.6798,-49.1018 -5.9336,-2.9031 -12.0812,-3.4797 -21.8016,-2.045 -4.9127,0.7251 -6.0607,0.5853 -7.75,-0.9435 -1.8839,-1.7049 -1.9831,-3.1412 -1.9831,-28.7054 0,-27.0163 0.4391,-30.7793 3.5919,-30.7793 1.3515,0 1.3475,0.2484 -0.035,2.2225 -2.1574,3.0801 -2.3347,52.3313 -0.1989,55.2522 1.2653,1.7303 1.8682,1.7696 8.848,0.5756 20.2912,-3.4709 36.729,9.25 36.7625,28.4497 0.034,19.4058 -16.7991,32.7519 -36.9502,29.2964 -10.549,-1.809 -10.0181,-3.2605 -10.0181,27.3918 0,16.6716 0.3861,26.6648 1.0805,27.9622 2.217,4.1426 6.5044,4.8496 29.4088,4.8496 h 21.5536 l 1.0862,2.3841 c 0.784,1.7206 0.778,3.8217 -0.021,7.5493 -1.499,6.9898 -1.3968,10.1423 0.5116,15.7817 3.8396,11.3459 11.5024,19.0678 23.09469,23.2727 5.2227,1.8944 7.6952,2.1889 15.50001,1.8462 7.7519,-0.3403 10.3599,-0.9128 15.786,-3.4654 7.8953,-3.714 13.6699,-9.3148 17.3473,-16.825 3.4663,-7.0792 4.2909,-13.824 2.6408,-21.5996 -1.0861,-5.1182 -1.0686,-6.2856 0.1117,-7.4316 1.0789,-1.0475 6.7933,-1.4344 24.9002,-1.6859 l 23.5,-0.3265 -0.305,30 c -0.2833,27.8683 -0.4396,30.1366 -2.1995,31.9218 -1.7529,1.7781 -2.3056,1.8232 -7.3881,0.604 -14.8725,-3.5679 -29.1489,4.1848 -34.6699,18.8271 -3.1516,8.3583 -2.4627,20.5876 1.5773,28.0025 7.0524,12.9438 20.899,18.9342 34.8267,15.0668 3.2349,-0.8983 4.1451,-0.7918 5.765,0.6742 1.8251,1.6517 1.9101,3.205 1.6586,30.3222 l -0.2651,28.5814 -21.0774,0.2694 c -20.2091,0.2583 -21.1545,0.1843 -22.9469,-1.7963 -1.7164,-1.8966 -1.7751,-2.713 -0.7163,-9.9772 1.9082,-13.0919 -1.8464,-23.3934 -11.7821,-32.3264 -7.56599,-6.8024 -14.2485,-9.0989 -26.4773,-9.0989 -12.40561,0 -19.04381,2.3319 -26.7891,9.4107 -10.0035,9.1427 -13.8155,20.2209 -11.5656,33.6112 1.8092,10.7672 2.6486,10.4075 -24.2894,10.4075 -13.5172,0 -22.6641,0.4112 -24.1436,1.0852 -5.343,2.4345 -5.7123,4.5323 -5.7123,32.455 v 25.7317 l -4.75,-0.8669 c -2.6125,-0.4767 -8.5853,-0.8754 -13.273,-0.8859 -7.6384,-0.017 -9.2169,0.3226 -15.208,3.2729 -22.6665,11.162 -26.4169,41.0004 -7.3599,58.5553 1.7,1.566 5.5659,4.041 8.5909,5.5 4.8997,2.3632 6.5369,2.631 15,2.4536 5.225,-0.1096 11.075,-0.3346 13,-0.5 l 3.5,-0.3009 0.5,25.5 c 0.275,14.025 0.8753,26.2605 1.334,27.19 2.226,4.5109 4.1891,4.81 31.5718,4.81 15.6255,0 26.214,0.3849 26.5731,0.9658 0.3283,0.5312 -0.15,3.535 -1.0628,6.6751 -4.6553,16.0133 3.3775,34.6253 18.19189,42.1506 16.36221,8.3115 36.34241,2.8694 46.27101,-12.6029 4.618,-7.1965 6.6825,-16.6189 5.3569,-24.4486 -0.5811,-3.432 -1.3478,-6.9694 -1.7037,-7.861 -0.3688,-0.9237 0.054,-2.3219 0.9817,-3.25 1.4183,-1.4183 4.8586,-1.629 26.603,-1.629 h 24.974 l 2.3883,-2.3882 c 1.3136,-1.3136 2.6693,-3.9011 3.0127,-5.75 0.3435,-1.849 0.4858,-14.3112 0.3163,-27.6938 -0.2901,-22.9068 -0.4242,-24.4168 -2.2887,-25.7788 -1.3746,-1.0042 -2.9043,-1.2086 -5,-0.668 -1.6607,0.4284 -6.6195,0.7788 -11.0195,0.7788 -6.2454,0 -8.9869,-0.4868 -12.5,-2.2195 -5.9527,-2.9361 -11.5514,-8.5014 -14.8113,-14.7228 -2.2224,-4.2416 -2.6531,-6.3599 -2.6693,-13.1284 -0.017,-7.0206 0.3713,-8.8346 2.9833,-13.9419 5.9838,-11.7004 18.4358,-18.5357 30.9282,-16.9774 3.338,0.4163 7.3998,0.8094 9.0261,0.8735 5.1717,0.2038 5.565,-1.9416 5.4577,-29.7684 -0.076,-19.7967 0.1781,-25.0587 1.2447,-25.7347 0.7373,-0.4674 11.973,-0.8566 24.9682,-0.8651 28.2059,-0.018 26.8044,0.5887 24.9931,-10.8235 -4.014,-25.2899 15.1805,-45.1882 37.3681,-38.7381 7.8859,2.2925 16.1968,10.4363 19.4445,19.0537 1.9727,5.234 2.179,7.132 1.6299,14.9926 -0.9141,13.087 -0.8903,13.6777 0.5892,14.6153 1.18,0.7479 45.2127,1.5708 51.8476,0.969 1.375,-0.1247 3.5125,-1.1731 4.75,-2.3298 2.2293,-2.0837 2.2502,-2.3622 2.2648,-30.1788 0.017,-32.787 0.1085,-33.2134 7.0246,-32.8254 15.0131,0.8423 17.3909,0.6319 22.5081,-1.9913 6.6364,-3.4019 11.1129,-8.0124 14.3299,-14.759 2.2602,-4.7398 2.6226,-6.813 2.6226,-15 0,-8.0576 -0.3716,-10.2551 -2.4476,-14.4739 -5.6399,-11.4613 -16.9611,-18.261 -28.5524,-17.1492 -3.3,0.3165 -7.125,0.8375 -8.5,1.1577 -1.4819,0.3451 -3.3144,-0.019 -4.5,-0.8945 -1.9095,-1.4098 -2.0132,-2.8149 -2.2926,-31.0584 l -0.2927,-29.5817 h 26.9202 c 31.1204,0 29.8332,-0.3927 28.6547,8.7425 -2.1755,16.8622 2.5021,27.5393 14.9204,34.0577 4.3471,2.2818 6.3307,2.6738 13.59,2.6858 7.66916,0.013 9.03756,-0.2889 13.99996,-3.0855 6.2109,-3.5 12.3372,-11.2379 14.1235,-17.8386 0.6502,-2.4028 0.8329,-6.9211 0.4471,-11.0619 -0.7745,-8.3143 -0.7709,-11.6322 0.013,-12.4195 0.8126,-0.8156 54.7298,-1.7225 55.7587,-0.9378 0.4634,0.3534 0.3509,1.5613 -0.25,2.6842 -0.7113,1.3291 -1.0927,11.2879 -1.0927,28.536 0,30.1122 0.1029,30.5438 6.9039,28.9696 1.9779,-0.4579 6.7461,-0.8325 10.5961,-0.8325 11.885,0 22.4232,6.6385 27.7805,17.5 1.795,3.6392 2.2195,6.2216 2.2195,13.5 0,7.9969 -0.3036,9.5165 -2.7243,13.6343 -7.82,13.3024 -21.8246,19.4002 -36.2267,15.7737 -3.1767,-0.7999 -4.9,-0.7905 -6.4428,0.035 -2.0633,1.1043 -2.1062,1.688 -2.1062,28.669 v 27.5417 l 2.9231,2.9231 2.9231,2.923 h 26.9219 c 25.7662,0 27.0007,0.087 28.7553,2.0258 1.6813,1.8579 1.7264,2.5636 0.5436,8.5144 -2.9039,14.6095 3.2642,28.2338 15.6033,34.4645 6.4803,3.2723 17.0993,3.8969 24.4942,1.4407 7.2806,-2.4182 15.8467,-10.9522 18.2468,-18.1783 1.9974,-6.0135 2.2483,-14.7386 0.5701,-19.8236 -0.9652,-2.9246 -0.8889,-3.9356 0.4516,-5.9815 l 1.6131,-2.462 h 27.5539 27.5539 l 2.9231,-2.923 2.923,-2.9231 v -26.9219 c 0,-25.4301 -0.1081,-27.0199 -1.9517,-28.6883 -1.742,-1.5765 -2.5088,-1.6327 -7.1346,-0.5229 -15.3936,3.6928 -30.1869,-3.4605 -36.9857,-17.8846 -3.4181,-7.2518 -3.17,-18.1527 0.5821,-25.5685 6.758,-13.357 21.3795,-20.0727 36.0436,-16.5548 4.9308,1.1829 5.6235,1.1368 7.4261,-0.4946 1.8756,-1.6973 2.0032,-3.3055 2.2542,-28.4087 l 0.266,-26.6096 h 27.5 27.5 v 13 c 0,11.8578 0.2174,13.4256 2.4736,17.8427 6.5443,12.8125 22.897,18.9874 37.2928,14.0822 6.3177,-2.1526 13.0746,-8.3785 16.3427,-15.0582 2.9699,-6.0703 3.692,-14.8887 2.0532,-25.0723 l -0.8377,-5.2057 28.484397,-0.2943 c 26.3727,-0.2725 28.6404,-0.4356 30.5877,-2.1993 1.7992,-1.6296 2.1033,-1.6739 2.1033,-0.3067 0,0.879 -1.0001,2.2988 -2.2225,3.1549 -1.8791,1.3163 -6.4201,1.5567 -29.3937,1.5567 h -27.171197 l 0.9811,4.25 c 0.5395,2.3375 0.8032,7.85 0.5858,12.25 -0.6622,13.4075 -7.2959,23.1783 -19.5547,28.8025 -6.6277,3.0407 -18.8184,3.0423 -25.442,0 -6.705,-3.0764 -14.1412,-10.4015 -16.8437,-16.592 -2.2964,-5.2603 -3.1549,-16.2028 -1.9391,-24.7138 l 0.5,-3.5 h -25.5 -25.5 l -0.5,26.5986 c -0.591,31.4426 -0.3008,30.5428 -9.471,29.3642 -14.9654,-1.9234 -23.2701,0.3458 -30.8253,8.4229 -5.9945,6.4086 -8.1037,12.2847 -7.4881,20.861 0.8056,11.2234 6.4582,19.3454 16.7647,24.0886 5.9022,2.7163 11.5326,3.1835 21.1465,1.7546 5.0321,-0.7479 5.8513,-0.6119 7.75,1.2869 2.0615,2.0615 2.1232,2.9237 2.1232,29.6729 0,29.2357 -0.395,31.9858 -4.9446,34.4207 -1.1801,0.6316 -12.2906,1.0355 -28.7396,1.0449 -14.7487,0.01 -27.4289,0.4038 -28.1783,0.8786 -1.1295,0.7156 -1.1541,2.0382 -0.1438,7.7347 4.2794,24.1284 -15.0951,43.7864 -38.755,39.3221 -11.9145,-2.2481 -22.6209,-12.0387 -25.2783,-23.1158 -1.1753,-4.8995 -0.8898,-16.6183 0.4863,-19.956 0.3881,-0.9412 -0.015,-2.3041 -0.9606,-3.25 -1.4242,-1.4241 -4.9967,-1.6289 -28.4226,-1.6289 -25.4782,0 -26.9214,-0.1004 -29.3942,-2.0455 -1.4302,-1.125 -3.0634,-3.7125 -3.6292,-5.75 -0.5788,-2.0837 -1.0313,-14.6926 -1.0345,-28.8196 -0.01,-24.2602 0.068,-25.2091 2.1642,-27.8735 2.0915,-2.6591 2.3887,-2.7303 8.25,-1.9789 18.2694,2.3423 28.8107,-2.2631 35.5881,-15.548 6.7364,-13.2043 0.4531,-30.6978 -13.4732,-37.5113 -5.9216,-2.8972 -11.8005,-3.4412 -22.1141,-2.0462 -5.8813,0.7955 -6.15,0.7324 -8.25,-1.9372 -2.1007,-2.6707 -2.1706,-3.5943 -2.1706,-28.6904 0,-15.9625 0.398,-26.6745 1.0352,-27.8651 1.0106,-1.8884 0.4469,-1.9339 -23.75,-1.919 -13.6318,0.01 -25.4181,0.4161 -26.1918,0.9058 -1.1886,0.7525 -1.2083,1.8251 -0.1269,6.9209 3.1298,14.7482 -4.367,29.4744 -18.1547,35.662 -20.13186,9.0346 -42.18596,-3.6558 -44.47896,-25.5943 -0.3434,-3.2859 -0.097,-7.7884 0.5713,-10.443 1.9186,-7.6195 2.4462,-7.4666 -25.7765,-7.4673 l -24.6276,-7e-4 0.2816,27.6862 c 0.1721,16.9307 0.678,28.1639 1.3021,28.9159 0.7269,0.8758 1.9389,0.9663 4.2118,0.3145 4.9439,-1.4179 14.8565,-1.0828 20.0206,0.6767 5.9219,2.0178 13.4744,8.7696 16.9474,15.1508 13.209,24.2692 -4.71,54.5567 -30.6912,51.8759 -3.3398,-0.3446 -7.1973,-0.7373 -8.5723,-0.8726 l -2.5,-0.2461 -0.5,29.8284 -0.5,29.8285 -3.7353,3.4215 -3.7353,3.4216 h -26.5601 -26.5602 l -2.5839,-2.5839 c -2.3888,-2.3888 -2.5211,-2.974 -1.7529,-7.75 0.457,-2.8414 0.8278,-8.0911 0.8239,-11.6661 -0.017,-15.9169 -12.3639,-29.4025 -26.876,-29.3555 -18.3494,0.059 -31.827,20.3046 -26.4379,39.7132 1.3331,4.8008 -0.2951,9.3925 -3.8035,10.7264 -1.3249,0.5038 -12.7297,0.9159 -25.3439,0.9159 h -22.9349 v 25.7775 c 0,32.0262 0.4493,30.8563 -11.3987,29.6828 -11.4996,-1.139 -13.9466,-0.912 -19.857,1.8416 -10.8741,5.0663 -16.7178,14.2335 -16.7345,26.2518 -0.016,11.2871 5.5046,20.1461 15.768,25.305 5.7718,2.9011 10.8986,3.4318 19.5614,2.025 l 7.9182,-1.2858 2.3713,2.7568 c 2.3663,2.751 2.3713,2.8131 2.3713,29.2999 0,27.9269 -0.5652,31.9101 -4.8272,34.0181 -0.92,0.455 -13.1478,1.0523 -27.1728,1.3273 l -25.5,0.5 0.2846,3 c 1.1277,11.8888 0.5608,21.2067 -1.6245,26.7016 -6.7358,16.9368 -26.3539,26.9692 -44.41421,22.7127 z m -0.043,-9.3566 c -15.71889,-5.6071 -23.73509,-22.1428 -18.34529,-37.8426 2.0659,-6.0179 2.09,-10.1249 0.071,-12.1436 -1.3476,-1.3476 -5.256,-1.5715 -27.4349,-1.5715 -14.3846,0 -27.002,-0.4328 -28.4286,-0.9752 l -2.5651,-0.9753 v -25.3504 -25.3504 l -2.5483,-2.394 c -1.4015,-1.3167 -3.764,-2.9336 -5.25,-3.5931 -1.9489,-0.865 -2.2002,-1.2218 -0.902,-1.2804 2.5929,-0.117 7.4689,2.618 8.6707,4.8634 0.6241,1.1662 1.0296,11.3706 1.0296,25.9079 0,13.1912 0.2731,24.6958 0.607,25.5657 0.5329,1.3887 3.924,1.5818 27.7775,1.5818 29.5359,0 30.8527,0.2295 31.8704,5.5529 0.2744,1.4357 -0.3898,6.0612 -1.4761,10.2788 -2.439,9.4693 -1.8401,16.6817 1.9178,23.0939 5.65039,9.6418 13.73729,14.4454 24.3034,14.4364 11.9354,-0.01 22.7992,-8.2354 26.5258,-20.0834 1.6926,-5.381 1.7103,-6.27 0.2655,-13.2729 -1.6783,-8.1344 -1.5514,-9.9422 0.3787,-5.3944 0.6743,1.5888 1.2392,6.7137 1.2554,11.3887 0.026,7.6338 -0.274,9.0273 -2.948,13.6743 -7.08369,12.3105 -22.2309,18.3578 -34.77471,13.8834 z m 35.00501,-43.2217 c -0.8675,-1.4037 2.3197,-7.2701 4.6879,-8.6287 1.4228,-0.8162 10.3636,-1.3692 27.6044,-1.7073 l 25.5,-0.5 0.2689,-22.1358 0.2688,-22.1359 -10.3592,-0.3835 c -9.3978,-0.3479 -10.9791,-0.6981 -17.0386,-3.7738 -8.1572,-4.1403 -13.793,-10.0634 -17.9753,-18.8914 -2.8821,-6.0834 -3.1613,-7.536 -3.128,-16.275 0.033,-8.7543 0.3199,-10.1706 3.2678,-16.1586 4.1435,-8.4168 12.9156,-16.7492 20.6986,-19.6612 8.7048,-3.2569 9.8564,-2.3827 1.497,1.1364 -8.7973,3.7035 -17.1546,11.3597 -21.0442,19.2788 -2.1343,4.3455 -2.4558,6.3744 -2.4558,15.5 0,9.4469 0.2777,11.0653 2.768,16.1364 6.9445,14.141 21.6352,22.5489 37.9071,21.6954 l 6.3249,-0.3318 0.2691,22.8746 c 0.1819,15.4587 -0.085,23.3016 -0.8242,24.1919 -0.8469,1.0204 -6.6471,1.3356 -25.7297,1.3984 -27.1066,0.089 -28.1634,0.3042 -30.658,6.237 -0.7056,1.6781 -1.5379,2.6384 -1.8495,2.1341 z m -141.3815,-65.3414 c -22.7473,-4.6991 -31.3383,-33.2592 -14.8278,-49.294 8.2166,-7.9799 18.1147,-10.1762 30.7897,-6.832 5.6038,1.4785 8.4788,1.7923 10.25,1.1189 1.354,-0.5148 2.5566,-1.0596 2.6726,-1.2107 0.1159,-0.1511 0.4534,-13.0998 0.75,-28.7748 l 0.5391,-28.5 23.0474,-0.5 c 25.8364,-0.5605 27.2724,-0.9309 30.1313,-7.7733 1.2744,-3.0502 1.3193,-4.5238 0.2863,-9.3917 -2.4311,-11.4559 0.7022,-21.7314 8.8002,-28.8595 5.50839,-4.8487 9.83299,-6.8609 17.3458,-8.0708 15.047,-2.4232 28.4257,4.3149 34.9728,17.6139 3.3416,6.7877 3.38,7.4087 1.341,21.6651 -0.5405,3.7788 -0.2708,5.3243 1.3959,8 3.8112,6.1184 4.5179,6.2812 28.6793,6.6058 12.1,0.1625 22.5625,0.4873 23.25,0.7216 0.9523,0.3247 1.25,6.0052 1.25,23.8518 v 23.4257 l -7.5298,-0.038 c -4.1413,-0.021 -7.8113,-0.4936 -8.1554,-1.0504 -0.413,-0.6681 1.9836,-0.815 7.0483,-0.432 l 7.6741,0.5804 -0.2686,-22.6743 -0.2686,-22.6743 -23.0478,-0.5 c -19.7626,-0.4287 -23.43,-0.7508 -25.7292,-2.2594 -4.7877,-3.1415 -7.2504,-10.3523 -5.5468,-16.2406 1.6514,-5.7079 1.1367,-12.8559 -1.2995,-18.046 -10.7612,-22.9256 -45.42681,-23.4242 -56.4897,-0.8125 -2.8829,5.8925 -3.2464,9.9568 -1.9546,21.8585 0.7375,6.7954 -0.2906,9.5868 -4.7526,12.9036 -2.6208,1.9482 -4.4591,2.1318 -26,2.5964 l -23.1798,0.5 -0.2655,28.2372 -0.2656,28.2371 -2.5575,1.6758 c -2.3004,1.5072 -3.1788,1.5371 -8.7345,0.2972 -9.6518,-2.154 -21.3334,-1.8113 -26.2451,0.7699 -4.7807,2.5124 -11.0656,9.1622 -12.9722,13.7254 -8.5962,20.5736 9.8627,43.0214 31.2822,38.0423 6.0522,-1.4069 8.2423,-1.1897 4.0555,0.4021 -4.0297,1.5321 -10.9961,2.0299 -15.4709,1.1056 z m -614.0022,-67.3722 c -16.5248,-5.4039 -25.7917,-21.4011 -22.3959,-38.6615 0.926,-4.7069 0.9291,-6.4258 0.013,-7.5291 -0.9741,-1.1738 -5.9261,-1.4298 -27.6598,-1.4298 -23.2153,0 -26.8307,-0.2111 -29.3776,-1.7156 -1.8896,-1.1162 -2.9043,-2.5332 -2.9043,-4.0557 0,-2.3249 0.016,-2.3219 2.4121,0.4656 l 2.412,2.8057 27.4734,0.2947 c 33.1831,0.3558 31.7414,-0.214 29.697,11.7375 -1.6171,9.454 -0.3089,16.3348 4.4129,23.2102 13.7033,19.9531 43.0909,18.1653 53.1873,-3.2355 3.2658,-6.9222 3.9043,-12.5627 2.3529,-20.7848 -1.2942,-6.8586 -1.2743,-7.0391 0.9765,-8.8617 2.103,-1.7029 4.4124,-1.8604 27.2856,-1.8604 27.211,0 30.3473,-0.5374 32.6518,-5.5952 0.7596,-1.6673 1.1385,-11.2944 1.1385,-28.9288 v -26.4299 l 2.4829,-1.6268 c 2.0159,-1.3209 3.0784,-1.4193 5.6492,-0.5231 1.7415,0.6071 6.1367,1.1035 9.7671,1.103 26.4184,-0 39.7269,-31.2714 21.9347,-51.5356 -6.6201,-7.5398 -19.7453,-11.2341 -30.39,-8.5538 -3.9304,0.9897 -5.0423,0.9282 -7.0548,-0.3905 l -2.3891,-1.5654 v -26.4299 c 0,-25.4086 -0.6131,-31.524 -3.1605,-31.524 -1.3017,0 -0.9893,-4.4504 0.4105,-5.8482 0.9189,-0.9175 1.3212,-7.9249 1.5188,-26.45 0.3077,-28.8373 0,-30.3982 -5.8119,-29.914 -13.2063,1.0994 -19.5203,0.681 -24.1518,-1.6003 -13.8085,-6.8016 -20.6286,-21.9632 -16.4089,-36.4785 2.1252,-7.3102 9.5136,-15.5446 16.8337,-18.7611 5.2381,-2.3017 7.5808,-2.4685 23.2292,-1.654 6.21,0.3233 6.509,-0.9628 6.5262,-28.076 0.017,-26.347 -0.5524,-29.2584 -6.1979,-31.7113 l -3.2874,-1.4283 3.0757,-0.039 c 2.0471,-0.026 3.8864,0.8233 5.5,2.5397 2.4241,2.5786 2.4243,2.5809 2.7192,29.3081 0.2901,26.291 0.2586,26.7753 -1.9177,29.542 -2.1639,2.751 -2.3574,2.7953 -8.7949,2.0148 -14.2856,-1.7321 -22.6478,0.8476 -30.0661,9.2752 -12.8503,14.5988 -6.5629,37.0689 12.3525,44.1461 6.5502,2.4507 8.2028,2.5557 15.8989,1.0101 7.4066,-1.4875 10.2535,-0.6876 11.6325,3.2681 1.6046,4.6031 1.3954,50.2851 -0.2514,54.8893 -1.0985,3.0713 -1.0282,3.9199 0.5387,6.5 1.6167,2.6622 1.8026,5.7154 1.8073,29.6823 0,24.4263 0.1552,26.7927 1.7553,27.6243 0.9625,0.5003 2.65,0.5478 3.75,0.1055 1.1,-0.4422 5.6,-0.8353 10,-0.8736 6.8452,-0.06 8.8662,0.3464 14,2.8111 7.3046,3.5069 12.5428,8.8065 15.9314,16.1179 3.5626,7.6869 3.6189,19.2021 0.1305,26.6945 -3.4647,7.4416 -9.5211,13.5653 -16.5247,16.7083 -5.9562,2.673 -9.3501,2.9888 -24.5372,2.283 l -4,-0.1858 -0.5,27.5 c -0.3583,19.706 -0.8627,28.1347 -1.7796,29.7396 -2.7706,4.849 -5.2763,5.258 -32.4207,5.2922 -29.5811,0.037 -29.5674,0.034 -27.7107,7.4074 3.8645,15.3473 -3.8983,31.9216 -17.9677,38.3628 -6.66,3.049 -17.5008,3.8774 -23.7971,1.8184 z m 1237.84666,-15.1194 c -10.7504,-6.1459 -14.3578,-15.8696 -11.7181,-31.5853 0.5701,-3.394 0.3687,-5.3602 -0.7755,-7.5728 -3.0396,-5.8781 -2.6386,-5.8012 -33.0787,-6.3429 l -28.0986,-0.5 -0.267,-24.539 -0.267,-24.5391 9.767,0.012 c 7.8468,0.01 10.888,-0.4354 15.4687,-2.2647 7.9759,-3.1852 15.0193,-9.8403 19.0178,-17.9694 3.012,-6.1236 3.2805,-7.4506 3.2805,-16.2083 0,-8.7595 -0.268,-10.0829 -3.2805,-16.2 -3.9993,-8.1207 -11.0492,-14.7789 -19.0178,-17.9611 -4.5807,-1.8293 -7.6219,-2.2746 -15.4687,-2.2647 l -9.767,0.012 0.267,-24.5391 0.267,-24.539 27.6793,-0.5 c 26.1159,-0.4718 27.8387,-0.6184 30.5,-2.5958 3.8694,-2.875 5.0041,-7.8874 3.3481,-14.79 -2.3588,-9.8329 0.4903,-18.3789 8.4686,-25.4018 18.051,-15.8891 44.8865,1.8089 39.178,25.8379 -1.6002,6.7357 -0.4209,11.302 3.7176,14.3945 2.5848,1.9316 4.2948,2.0704 28.4293,2.3086 14.1235,0.1394 26.6996,0.4874 27.9469,0.7735 l 2.2677,0.5201 -0.2677,24.2265 -0.2678,24.2265 -8,-0.3458 c -20.8167,-0.8997 -36.6675,11.8742 -39.4979,31.831 -3.3647,23.7247 14.9744,42.9942 39.8418,41.863 l 7.6561,-0.3482 v 24.5 24.5 l -28,0.5 c -30.9608,0.5529 -31.1063,0.583 -34.0264,7.0586 -1.3367,2.9642 -1.4434,4.3871 -0.566,7.5471 1.4216,5.1199 1.3844,13.2492 -0.08,17.4951 -1.7672,5.124 -6.4067,10.3522 -11.7835,13.2786 -6.7043,3.649 -16.6111,3.7016 -22.8733,0.1215 z m 18.3291,-0.6064 c 8.8215,-2.4133 16.583,-14.5276 15.1155,-23.5928 -2.1862,-13.5056 -1.7565,-16.1467 3.3851,-20.8041 2.0643,-1.8699 4.0052,-2.0296 30.3524,-2.4977 l 28.147,-0.5 0.2689,-22.1584 0.2689,-22.1584 -10.2689,-0.3444 c -12.6221,-0.4233 -19.1427,-3.0802 -27.0985,-11.0418 -16.7326,-16.7446 -15.1888,-44.0647 3.3166,-58.6924 7.4338,-5.8761 14.299,-8.1046 24.9674,-8.1046 h 8.8793 l -0.1668,-22.25 -0.1669,-22.25 -27.6863,-0.5 -27.6863,-0.5 -3.086,-2.9584 c -4.1572,-3.9854 -5.718,-9.3399 -4.1996,-14.4076 3.6288,-12.1119 -1.6519,-24.2146 -12.5596,-28.7855 -1.7699,-0.7417 -5.5653,-1.3485 -8.4343,-1.3485 -10.0727,0 -18.4581,6.5175 -21.4248,16.6524 -1.3215,4.5147 -1.3321,5.9147 -0.085,11.3125 1.7771,7.6926 0.856,12.3019 -3.2866,16.4471 l -3.0862,3.088 -27.7326,0.5 -27.7327,0.5 -0.2647,22.5 -0.2648,22.5 10.2648,0.024 c 9.5392,0.022 10.694,0.2468 16.3375,3.175 8.028,4.1653 16.5468,13.3653 19.4606,21.0164 2.9928,7.8586 3.0083,20.4857 0.035,28.2846 -4.1726,10.944 -11.02,17.7372 -22.7332,22.5533 -4.6075,1.8945 -7.6758,2.4042 -14.5851,2.423 l -8.75,0.024 v 21.893 c 0,19.041 0.2061,21.9721 1.5818,22.5 0.87,0.3338 13.2294,0.607 27.4652,0.607 h 25.8834 l 3.5106,3.0822 c 4.8322,4.2428 5.8536,8.5236 3.9708,16.6421 -1.3562,5.8475 -1.3429,7.0028 0.1389,12.1196 3.5136,12.1335 15.3378,18.5008 27.9493,15.0506 z m -984.09996,-37.2946 c -2.6409,-2.6409 -3.4162,-4.2595 -3.4726,-7.25 -0.04,-2.1175 -0.067,-13.6792 -0.06,-25.6926 0.01,-12.0135 -0.4182,-22.9759 -0.9448,-24.361 -0.9086,-2.3896 -1.1992,-2.4743 -5.6901,-1.6573 -13.4452,2.4459 -25.5875,-0.9611 -33.3191,-9.3488 -6.4956,-7.047 -8.4034,-12.2211 -8.4029,-22.7903 4e-4,-7.985 0.334,-9.6602 2.9585,-14.8547 5.6059,-11.0953 16.4914,-17.6453 29.3251,-17.6453 3.6955,0 8.1872,0.4211 9.9816,0.9357 5.8479,1.6772 6.1967,0.068 6.2833,-28.9973 0.042,-13.9911 0.043,-26.7884 0,-28.4384 -0.081,-3.3329 -0.1741,-53.7104 -0.1051,-57.2243 0.067,-3.4231 5.0921,-5.634 9.8205,-4.3208 14.0467,3.9011 28.6256,-2.363 35.449,-15.2314 1.7744,-3.3463 2.2431,-5.8851 2.2568,-12.2235 0.015,-7.113 -0.3263,-8.6098 -3.0815,-13.5 -3.4509,-6.1249 -10.5246,-12.1212 -16.3628,-13.8703 -4.8114,-1.4416 -13.8148,-1.4522 -17.92,-0.021 -4.2835,1.4932 -8.6483,-0.3214 -9.9831,-4.1503 -0.5796,-1.6626 -0.9195,-13.6361 -0.8149,-28.7005 0.1589,-22.8706 0.3838,-26.1592 1.9527,-28.5527 0.9751,-1.4878 2.6422,-2.7051 3.7045,-2.7051 1.7666,0 1.7219,0.2096 -0.523,2.4545 l -2.4546,2.4546 v 27.5224 27.5224 l 2.456,1.6092 c 1.3509,0.8851 2.9193,1.323 3.4856,0.973 2.3508,-1.4529 11.9003,-2.3074 16.3972,-1.4673 14.6358,2.7343 24.4883,13.7556 25.416,28.4312 1.1369,17.9856 -12.362,32.5088 -30.2728,32.5699 -3.8401,0.013 -8.4053,-0.4046 -10.1448,-0.9282 -2.3982,-0.7219 -3.6808,-0.5893 -5.3053,0.5486 -2.1149,1.4813 -2.142,1.9083 -2.0987,33.1552 0.024,17.41 -0.063,43.2774 -0.1947,57.4831 -0.2264,24.5201 -0.3398,25.9038 -2.2385,27.3121 -1.4126,1.0478 -2.8811,1.2493 -5,0.686 -6.0728,-1.6143 -18.7059,-0.8868 -23.6563,1.3624 -5.7378,2.6069 -11.8793,8.7954 -14.9602,15.0747 -3.5372,7.2094 -3.3596,18.7485 0.4066,26.4178 6.2751,12.7783 19.2699,18.9366 34.8651,16.5227 6.1127,-0.9462 7.0106,-0.8642 8.8589,0.8084 1.9836,1.7951 2.0517,2.7974 1.917,28.1907 -0.1523,28.7188 0.1119,30.2219 5.6863,32.3412 1.3821,0.5255 14.1138,0.9554 28.2927,0.9554 24.4388,0 25.8733,-0.1032 27.5751,-1.9836 1.6293,-1.8004 1.677,-2.5399 0.5166,-8.008 -4.8904,-23.0448 14.9464,-43.2363 36.9411,-37.6015 7.9205,2.0291 14.1747,6.3617 18.5398,12.8435 4.8895,7.2604 6.209,13.9543 4.6177,23.4248 -2.017,12.0035 -3.4287,11.4747 29.6826,11.119 l 27.393,-0.2942 2.412,-2.8058 2.412,-2.8057 v -26.8728 c 0,-31.5701 -0.2437,-30.767 8.9372,-29.4476 8.8879,1.2772 15.9003,0.6539 21.4744,-1.9089 7.4552,-3.4277 11.1346,-6.992 14.7053,-14.245 2.7408,-5.5674 3.1708,-7.4824 3.1051,-13.8278 -0.2073,-20.0113 -17.4989,-33.5312 -37.7399,-29.5079 -6.1154,1.2155 -6.672,1.1735 -8.4481,-0.6386 -1.7755,-1.8115 -1.9119,-3.9256 -2.0599,-31.9399 -0.087,-16.5 -0.117,-41.8752 -0.066,-56.3893 l 0.092,-26.3893 5.25,0.851 c 2.8875,0.468 8.85,0.858 13.25,0.8666 6.5648,0.013 9.0181,-0.4576 13.6752,-2.6221 7.5279,-3.4989 13.805,-9.4476 17.3388,-16.432 4.0806,-8.0652 4.6779,-20.2314 1.418,-28.881 -2.8917,-7.6725 -11.0439,-16.4454 -18.1043,-19.4827 -9.1016,-3.9154 -14.4636,-4.5463 -22.7451,-2.6761 -5.5154,1.2456 -7.7083,1.3805 -8.7248,0.5369 -1.0769,-0.8938 -1.3578,-6.257 -1.3578,-25.9277 v -24.8008 l -2.5889,-3.0768 c -2.4724,-2.9383 -2.496,-3.0767 -0.5257,-3.0767 4.4492,0 5.1146,3.9616 5.1146,30.4503 0,17.6427 0.3193,24.5497 1.1347,24.5497 0.6241,0 3.9834,-0.5249 7.465,-1.1664 17.7072,-3.2627 36.1287,7.1516 42.4399,23.9926 1.7535,4.6792 2.0641,7.3391 1.7717,15.1738 -0.3011,8.0704 -0.7915,10.3695 -3.2586,15.2776 -3.5856,7.1332 -10.7869,14.0131 -18.3346,17.5163 -6.7835,3.1485 -18.7484,4.1575 -25.8208,2.1774 -2.45,-0.686 -4.6755,-1.0264 -4.9455,-0.7565 -0.2699,0.27 -0.4894,24.9461 -0.4878,54.8358 0,43.9115 0.2586,54.6005 1.3343,55.6763 1.0718,1.0717 2.3786,1.1068 6.7002,0.18 15.5549,-3.3359 30.9813,4.0161 37.6639,17.9502 3.7064,7.7286 3.8958,20.3169 0.4083,27.1429 -5.3556,10.4824 -11.8982,15.9623 -22.2574,18.6422 -5.401,1.3972 -7.3693,1.458 -13.6206,0.4207 -5.6758,-0.9419 -7.6295,-0.9453 -8.75,-0.015 -1.1917,0.9889 -1.4427,5.8913 -1.4427,28.1748 v 26.9776 l -3.4,3.4 -3.4,3.4 h -28.1 c -27.3252,0 -28.1587,-0.059 -30.2268,-2.1269 -1.8931,-1.893 -2.0392,-2.7448 -1.3293,-7.75 1.1784,-8.3082 0.9787,-15.4302 -0.5396,-19.2447 -4.6448,-11.6698 -14.9564,-18.8784 -27.0043,-18.8784 -13.063,0 -23.7916,8.1475 -27.6525,21 -1.4003,4.6613 -1.4765,6.5321 -0.4999,12.2685 1.5722,9.2341 1.4813,10.3471 -1.0362,12.6925 -2.0941,1.951 -3.393,2.039 -30.1,2.039 h -27.9114 z m 547.2139,-2.1639 c -0.3376,-0.8798 -0.6139,-14.3272 -0.6139,-29.883 0,-26.6066 -0.1165,-28.4315 -1.9661,-30.7829 -3.0448,-3.8708 -7.3681,-5.2862 -11.9517,-3.9129 -5.8289,1.7464 -13.6436,1.4098 -17.872,-0.7696 -16.2691,-8.3858 -19.6053,-30.8669 -6.4733,-43.6206 6.4583,-6.2722 10.8901,-7.1259 25.7631,-4.9628 4.7827,0.6955 9.9969,-2.0506 11.525,-6.0698 0.5483,-1.4423 0.975,-14.7024 0.975,-30.2996 0,-20.2382 0.3244,-28.0592 1.2,-28.9349 0.8629,-0.8628 7.5766,-1.2 23.8947,-1.2 h 22.6947 l 0.3789,11.75 c 0.3269,10.1374 0.7435,12.5348 3.0354,17.4681 3.5069,7.5487 10.7163,15.1039 17.6718,18.5198 4.8769,2.3949 6.8209,2.7621 14.6245,2.7621 7.8101,0 9.7459,-0.3663 14.6415,-2.7704 13.4916,-6.6256 21.4172,-21.4319 20.7091,-38.6877 l -0.3506,-8.5419 h 23.5 23.5 l 0.5,29.1791 c 0.4732,27.6105 0.6124,29.3308 2.59,32 3.375,4.5554 6.8752,5.7879 12.6513,4.4546 10.6248,-2.4525 18.8066,-0.26 24.8913,6.6701 5.4316,6.1862 7.1698,11.4386 6.6553,20.1095 -0.5034,8.4839 -2.1145,12.3467 -7.3212,17.5534 -6.5296,6.5296 -13.0759,8.1519 -24.6458,6.1076 -6.2772,-1.1091 -9.2367,-0.2023 -12.0045,3.6781 -2.2625,3.172 -2.328,3.9225 -2.8164,32.2476 l -0.5,29 -23.5,0.2675 -23.5,0.2675 v -11.3193 c 0,-11.0795 -0.08,-11.4814 -3.7779,-18.9635 -13.58,-27.4772 -49.4037,-27.4476 -62.9479,0.052 -3.0773,6.2479 -3.2842,7.3405 -3.4413,18.1717 l -0.1671,11.5241 -23.469,0.2678 c -20.7463,0.2368 -23.5403,0.082 -24.0829,-1.3318 z m 44.9888,-10.6864 c 0.1159,-11.5748 1.3298,-15.7959 6.9988,-24.3366 4.4372,-6.685 10.6587,-11.6165 18.246,-14.4629 7.891,-2.9603 20.4983,-2.4975 27.6525,1.0151 14.5442,7.1409 22.5,20.9321 22.5,39.0032 v 9.0315 h 21.5 21.5 v -27.5321 c 0,-29.7807 0.2871,-31.7026 5.4459,-36.4624 2.9117,-2.6865 6.6967,-3.0193 17.1876,-1.5113 6.2984,0.9053 11.2334,-0.5604 16.0112,-4.7554 12.0207,-10.5542 10.3446,-31.4679 -3.1447,-39.2385 -5.4867,-3.1606 -9.5575,-3.8355 -14.6663,-2.4313 -8.3456,2.2938 -15.0627,0.5605 -18.5742,-4.7928 -1.5448,-2.3551 -1.8205,-6.2258 -2.2595,-31.7292 l -0.5,-29.047 -21.1414,-0.2695 -21.1415,-0.2696 -0.3585,11.2906 c -0.3295,10.3759 -0.6257,11.8332 -3.6554,17.9875 -4.1512,8.4323 -10.4457,14.7705 -18.708,18.838 -11.5308,5.6766 -26.0251,4.2534 -36.7395,-3.6074 -10.6984,-7.8491 -15.9292,-18.7637 -16.2799,-33.9696 l -0.2307,-10 h -20.8725 -20.8726 l -0.5,29.3234 -0.5,29.3234 -4.2112,3.9266 c -3.5472,3.3074 -4.8877,3.9257 -8.5,3.921 -2.3588,-0 -6.0223,-0.4869 -8.141,-1.0752 -8.1708,-2.2688 -18.3411,2.8056 -22.9036,11.4276 -1.6992,3.211 -2.1978,5.8547 -2.1978,11.6532 0,8.8481 2.2342,14.0213 8.1746,18.928 5.2937,4.3725 10.3941,5.6078 17.3392,4.1995 10.2208,-2.0725 13.7287,-1.2305 18.1058,4.346 2.3068,2.9389 2.3376,3.3146 2.6396,32.25 l 0.3055,29.2765 21.1945,-3e-4 21.1944,-3e-4 z m -586.936,6.5837 c -0.3667,-0.3667 -0.6667,-12.9191 -0.6667,-27.8943 v -27.2276 l -2.8477,-3.0484 c -3.737,-4.0005 -7.1289,-4.7334 -14.8263,-3.2034 -9.8371,1.9553 -17.5022,-0.317 -24.0253,-7.122 -8.476,-8.8425 -8.5218,-22.7607 -0.1063,-32.3212 5.4742,-6.219 10.5818,-7.9482 21.0388,-7.123 11.7084,0.924 12.964,0.8251 15.7668,-1.2423 4.7461,-3.5007 4.9696,-4.9702 4.9853,-32.7787 0.011,-19.7028 0.3221,-26.3664 1.2647,-27.099 0.7209,-0.5602 11.0232,-0.9967 24.3377,-1.0312 l 23.0877,-0.06 -0.088,9.6588 c -0.078,8.5389 0.2293,10.3354 2.6463,15.4946 5.5302,11.8046 14.0342,19.1139 25.8163,22.1895 8.6491,2.2578 16.1384,1.5108 24.6133,-2.4551 14.4328,-6.7539 22.7632,-21.1264 22.0916,-38.1148 l -0.2552,-6.4554 22.6359,-0.2928 c 19.7548,-0.2555 22.8412,-0.087 24.25,1.3214 1.4044,1.4045 1.6142,5.0608 1.6142,28.1384 0,24.9951 0.1162,26.6875 2.0168,29.3566 2.8048,3.939 7.9149,5.4828 13.4967,4.0773 8.7232,-2.1966 16.9459,-0.7785 23.4744,4.0483 3.8581,2.8524 9.0138,13.0194 9.0065,17.7605 -0.015,9.3733 -4.6113,17.4753 -12.284,21.6513 -5.6427,3.0712 -10.5207,3.4991 -22.4248,1.9673 -6.1999,-0.7978 -6.2226,-0.7914 -9.75,2.736 l -3.5356,3.5357 v 26.5182 c 0,14.585 -0.2732,27.23 -0.607,28.1 -0.529,1.3784 -3.5399,1.5818 -23.4183,1.5818 -12.5461,0 -23.4631,-0.2502 -24.2598,-0.5559 -1.1849,-0.4547 -1.2651,-1.4106 -0.4404,-5.25 2.0812,-9.6897 -3.0541,-23.9081 -11.4823,-31.7916 -12.3672,-11.5681 -32.3276,-13.8179 -45.2923,-5.105 -4.4802,3.011 -10.3724,8.7943 -12.5794,12.3471 -4.676,7.5273 -7.4918,22.325 -4.9978,26.2647 2.4062,3.8009 0.7161,4.0907 -23.8631,4.0907 -13.0495,0 -24.0263,-0.3 -24.393,-0.6667 z m 46.5725,-7.2349 c -0.6358,-8.8851 2.2857,-19.0064 7.4423,-25.7839 4.02,-5.2835 4.985,-6.1812 10.6828,-9.9368 6.2919,-4.1473 11.4965,-5.5758 20.3181,-5.5766 11.972,-10e-4 19.7548,3.1429 28.0743,11.3414 7.6923,7.5806 12.1276,20.5269 10.835,31.6262 l -0.6136,5.2688 22.761,-0.2688 22.7609,-0.2688 0.5,-27.0469 c 0.4366,-23.6177 0.7237,-27.388 2.264,-29.7361 3.7694,-5.7465 9.7834,-7.301 18.6062,-4.8093 12.5896,3.5554 27.4155,-7.9483 27.4155,-21.2721 0,-5.8885 -2.7979,-13.136 -6.4107,-16.6057 -1.3062,-1.2546 -4.7604,-3.393 -7.6759,-4.7521 -5.4568,-2.5437 -5.3379,-2.539 -18.7835,-0.7367 -6.1718,0.8273 -10.5493,-1.0724 -13.4561,-5.8396 -1.8073,-2.9642 -1.9523,-5.1844 -1.9557,-29.9515 v -26.75 l -20.25,-0.081 c -11.1375,-0.045 -21.3799,-0.1673 -22.7609,-0.2725 l -2.5109,-0.1913 -0.021,9.5225 c -0.019,8.6868 -0.3161,10.1591 -3.3885,16.7754 -3.9842,8.58 -9.8743,14.5442 -18.5755,18.8092 -5.4769,2.6847 -6.9009,2.938 -16.5147,2.938 -9.8763,0 -10.9308,-0.2018 -17.207,-3.2915 -8.1697,-4.0219 -15.828,-12.1732 -18.9443,-20.1636 -1.6264,-4.1702 -2.183,-7.8378 -2.2452,-14.7932 l -0.083,-9.2483 -22.6826,-0 c -20.7425,-0 -22.7262,0.148 -23.1922,1.7483 -0.2803,0.9625 -0.4662,13.0123 -0.4131,26.7774 0.062,15.9472 -0.2889,25.7431 -0.9659,27 -0.5844,1.0849 -2.2649,3.0976 -3.7344,4.4726 -2.8576,2.6738 -5.4182,2.875 -19.0118,1.494 -5.2874,-0.5372 -6.6532,-0.2761 -11.5,2.1982 -6.3505,3.242 -11.4073,9.8405 -12.5006,16.3119 -1.8342,10.8564 5.6404,22.2687 16.6714,25.4542 5.1928,1.4995 6.1817,1.5051 11.7337,0.067 3.3458,-0.867 7.3026,-1.2778 8.8292,-0.9166 4.35,1.0291 9.0997,5.1212 10.0528,8.6609 0.4785,1.777 0.7449,14.237 0.5919,27.6889 -0.1857,16.3307 0.078,24.8872 0.7942,25.75 0.8177,0.9852 6.355,1.292 23.3164,1.292 h 22.244 z m 27.7608,-122.8408 c -2.9323,-1.0324 -6.6055,-3.7048 -10.5441,-7.671 -8.6649,-8.7259 -11.0436,-17.0852 -8.3867,-29.4739 0.7709,-3.5944 0.7611,-5.5614 -0.035,-7.0492 -1.0715,-2.0021 -1.8655,-2.0636 -26.6349,-2.0636 -15.6866,0 -26.2764,-0.3991 -27.4649,-1.0352 -1.83,-0.9794 -1.9342,-2.331 -1.9342,-25.0796 v -24.0444 l 6.4517,0.691 c 15.6722,1.6783 30.9901,-6.5586 37.7563,-20.3027 3.0602,-6.2161 3.292,-7.3942 3.292,-16.7291 0,-9.3316 -0.2325,-10.5143 -3.2868,-16.7184 -6.9337,-14.0844 -21.6466,-21.9095 -37.9813,-20.2005 l -6.268,0.6558 0.268,-24.3684 0.2681,-24.3685 84.9375,-0.2557 c 67.2887,-0.2025 85.1031,0.01 85.7347,1 0.4384,0.6907 0.8041,12.3681 0.8125,25.95 0.015,24.579 0.026,24.7072 2.4031,27.4701 2.6205,3.0466 3.1786,3.0987 19.2411,1.7947 6.9784,-0.5665 8.7941,-0.3656 12.8295,1.4195 11.2748,4.9874 17.4783,13.5038 18.3107,25.1381 0.6193,8.6552 -1.5325,15.2969 -6.9497,21.4512 -7.847,8.9147 -18.5856,12.0628 -31.1314,9.1265 -8.1358,-1.9042 -11.869,-2.0133 -13.488,-0.3944 -0.8757,0.8757 -1.2,8.7033 -1.2,28.9648 0,26.4268 -0.093,27.8147 -1.9342,28.8 -1.1885,0.6361 -11.7784,1.0352 -27.4649,1.0352 -24.7069,0 -25.5659,0.066 -26.6266,2.0481 -0.8006,1.4959 -0.7795,3.5734 0.078,7.7054 1.3372,6.4414 0.699,14.2034 -1.6253,19.7662 -2.4252,5.8043 -11.9962,14.8119 -17.8555,16.8044 -6.0812,2.068 -15.5929,2.0388 -21.5719,-0.066 z m 23,-3.1117 c 13.3201,-6.8578 18.3202,-18.4044 15.5507,-35.9113 -0.7,-4.4255 -0.5464,-5.5819 0.9632,-7.25 1.7028,-1.8816 3.1323,-1.9847 27.5187,-1.9847 20.2097,0 25.9596,-0.2856 26.8286,-1.3327 0.7334,-0.8836 1.1958,-10.5358 1.3725,-28.6427 l 0.2663,-27.31 2.7067,-2.0201 2.7066,-2.0202 9.083,2.2704 c 10.4394,2.6096 15.6729,2.2701 23.1105,-1.4988 8.5946,-4.3552 14.8932,-14.6671 14.8932,-24.3826 0,-8.9862 -6.011,-18.6372 -14.8339,-23.8165 -4.014,-2.3562 -5.7142,-2.7284 -12.1661,-2.6632 -4.125,0.042 -9.63,0.4351 -12.2334,0.8743 -5.4943,0.9269 -10.174,-0.5658 -12.0548,-3.845 -0.8219,-1.4331 -1.3726,-10.317 -1.7118,-27.6129 l -0.5,-25.5 h -83.5 -83.5 l -0.2691,22.2367 -0.2691,22.2367 5.8323,-0.6096 c 11.2728,-1.1783 22.5325,2.902 30.8548,11.1813 12.4141,12.35 15.2607,30.0398 7.4024,46.0022 -3.7764,7.671 -10.1195,13.6457 -18.8717,17.7757 -5.9813,2.8224 -7.6465,3.1532 -15.9289,3.1645 l -9.2493,0.012 -7e-4,22.1333 c -7e-4,22.1081 0,22.1341 2.2493,22.7364 1.2375,0.3316 13.3771,0.6091 26.977,0.6166 l 24.7269,0.014 1.6554,2.5264 c 1.3146,2.0063 1.4807,3.4988 0.8072,7.25 -1.5771,8.7828 -0.9214,16.2936 1.91,21.8812 3.054,6.0267 9.3362,11.8235 15.6735,14.4623 6.1908,2.5778 15.9396,2.1462 22,-0.974 z m 518.9533,0.9089 c -4.3768,-1.3288 -10.5262,-5.7278 -13.8193,-9.8857 -6.5434,-8.2618 -8.7684,-17.6995 -6.9591,-29.5185 1.1269,-7.3618 1.0813,-7.9902 -0.6741,-9.2738 -1.4886,-1.0885 -7.5232,-1.3769 -28.8085,-1.3769 h -26.9255 l 0.603,-2.25 c 0.3316,-1.2375 0.6091,-13.2252 0.6166,-26.6393 l 0.014,-24.3893 5.25,0.853 c 2.8875,0.4692 8.625,0.8365 12.75,0.8163 9.8222,-0.048 18.0275,-3.5745 24.5551,-10.553 7.0225,-7.5076 8.9523,-12.5636 8.9076,-23.3377 -0.046,-11.1731 -2.1271,-16.2949 -9.6946,-23.8623 -8.9508,-8.9508 -15.577,-10.6452 -36.7681,-9.4017 l -4.5,0.264 -0.5,-24.6473 c -0.4549,-22.4263 -0.6716,-24.8367 -2.4049,-26.75 -1.8759,-2.0705 -1.8747,-2.1027 0.081,-2.1027 3.7411,0 4.304,3.4487 4.5696,28 0.2478,22.8984 0.3055,23.4899 2.2543,23.1047 1.1,-0.2175 6.725,-0.4319 12.5,-0.4764 9.7224,-0.075 10.9443,0.1394 16.4993,2.8954 7.3506,3.6468 13.4667,9.5681 17.186,16.6388 2.5823,4.9091 2.8079,6.2204 2.8112,16.3375 0,9.7375 -0.2834,11.5739 -2.4965,16 -3.3964,6.7929 -10.3019,13.52 -17.5127,17.0604 -5.3493,2.6264 -6.9996,2.9396 -15.4873,2.9396 -5.225,0 -10.85,-0.225 -12.5,-0.5 l -3,-0.5 -0.2677,24.25 -0.2678,24.25 26.2678,0.015 c 14.4472,0.01 26.7629,0.3459 27.368,0.75 2.7194,1.8158 3.5511,5.3016 2.469,10.3475 -2.5527,11.9028 0.029,22.7844 7.2708,30.6403 10.2174,11.0846 23.8365,12.0791 35.4208,2.5867 8.8312,-7.2366 12.1831,-18.9738 9.8427,-34.4666 -0.7615,-5.041 -0.6289,-5.8478 1.2732,-7.75 2.0565,-2.0564 2.9484,-2.1232 28.3732,-2.1225 l 26.25,8e-4 -0.2829,-25.5132 -0.283,-25.5132 2.6066,-2.6066 c 2.4212,-2.4213 2.9746,-2.5459 7.783,-1.7527 9.6354,1.5896 16.1153,0.8926 21.8981,-2.3556 22.5128,-12.6453 17.3142,-44.5595 -8.2063,-50.3781 -2.0138,-0.4592 -6.3595,-0.3355 -10.1738,0.2896 -3.6621,0.6001 -7.7676,0.8127 -9.1234,0.4724 -4.3971,-1.1036 -4.8406,-4.2345 -4.5174,-31.8911 0.2983,-25.5239 0.3059,-25.6028 2.7235,-28.1743 1.6135,-1.7163 3.4529,-2.5656 5.5,-2.5395 l 3.0756,0.039 -3.1712,1.3794 c -1.7442,0.7587 -3.6567,2.2866 -4.25,3.3952 -0.6922,1.2932 -1.0788,11.3133 -1.0788,27.9589 0,30.4597 -0.4844,29.0721 9.4919,27.1897 10.6231,-2.0044 19.1024,0.1913 26.7839,6.9358 8.1878,7.1889 11.7391,20.4804 8.2659,30.9371 -2.4517,7.3815 -10.0887,15.4383 -17.1319,18.0734 -5.8885,2.2032 -15.5091,2.7253 -19.8447,1.0769 -1.6351,-0.6217 -3.4714,-0.6306 -5.0651,-0.025 l -2.5,0.9505 v 27.0248 27.0247 h -26.9769 c -26.8726,0 -26.9827,0.01 -28.4511,2.25 -1.1289,1.7229 -1.257,3.1871 -0.5469,6.25 1.5868,6.8451 1.1364,15.9934 -1.0788,21.9141 -2.6583,7.105 -9.9749,15.2245 -16.426,18.2286 -5.1859,2.4149 -14.1366,3.0609 -19.567,1.4122 z m 522.54666,-1.9205 c -5.0122,-2.2828 -10.8669,-8.6863 -12.5192,-13.6928 -0.895,-2.7117 -1.0525,-6.7385 -0.5432,-13.8807 0.3947,-5.5335 0.7952,-11.6359 0.89,-13.5609 l 0.1724,-3.5 -29.9157,-0.2651 c -20.2808,-0.1798 -30.3514,-0.6266 -31.2681,-1.3875 -1.0797,-0.896 -1.2983,-5.7733 -1.0843,-24.1869 l 0.2681,-23.0646 10,-0.049 c 11.3229,-0.055 16.4076,-1.7723 24.2319,-8.1838 7.6416,-6.2616 13.2681,-18.0707 13.2681,-27.8472 0,-10.699 -6.66,-23.4832 -15.2692,-29.3101 -7.5077,-5.0814 -12.3944,-6.5021 -22.7308,-6.6084 l -9.5,-0.098 -0.2452,-22.5 c -0.1427,-13.1001 0.1553,-23.1267 0.7134,-24 0.8367,-1.3095 11.2404,-1.534 81.8847,-1.7673 51.790197,-0.171 81.865997,0.09 83.536597,0.7253 l 2.6105,0.9925 v 82.4023 c 0,67.4675 -0.2417,82.6029 -1.3339,83.5094 -0.8915,0.7398 -11.0558,1.1951 -30.6415,1.3724 -33.888897,0.3068 -32.293397,-0.1922 -29.996497,9.3825 2.218,9.2456 1.8592,19.0578 -0.887,24.2592 -4.5983,8.7092 -11.8295,13.0797 -21.6411,13.0797 -3.6738,0 -7.5507,-0.7062 -10,-1.8217 z m 19.0086,-1.9994 c 4.9009,-2.2264 9.8607,-7.6938 11.5083,-12.6861 1.1792,-3.5729 1.0494,-8.5271 -0.6159,-23.5186 -1.0279,-9.2529 -2.1893,-8.9303 32.151397,-8.9303 h 29.4095 l 0.5444,-2.25 c 0.2993,-1.2375 0.4204,-38.025 0.269,-81.75 l -0.2753,-79.5 -81.749997,-0.2558 -81.75,-0.2559 v 21.7559 21.7558 l 9.2488,7e-4 c 7.9404,5e-4 10.0578,0.3797 14.9669,2.68 7.9841,3.7412 15.1369,10.7635 19.0407,18.6933 3.0027,6.0995 3.2412,7.3229 3.2412,16.626 0,9.2908 -0.2401,10.5268 -3.2092,16.5211 -4.0305,8.1368 -9.4378,13.7075 -17.499,18.0277 -5.6499,3.0279 -7.2883,3.4134 -16.0609,3.7786 l -9.7692,0.4068 0.2692,21.6329 0.2691,21.6329 29.6398,0.2647 c 24.856,0.222 29.84,0.506 30.8805,1.7598 0.9881,1.1906 0.9803,3.6853 -0.038,12.2513 -0.7035,5.916 -0.9652,12.8495 -0.5816,15.4077 1.9878,13.2557 17.7086,21.5846 30.1083,15.9515 z m -1517.50856,-35.8971 c 0,-1.1394 0.5625,-2.2779 1.25,-2.53 1,-0.3667 1,-0.7233 0,-1.7833 -0.98,-1.0388 -1.25,-19.8314 -1.25,-86.9902 0,-85.1509 0.012,-85.6809 2.0726,-88.3 1.481,-1.8828 2.9795,-2.6237 5.25,-2.5957 l 3.1774,0.039 -3.1713,1.3795 c -1.7442,0.7587 -3.6567,2.2865 -4.25,3.3951 -1.4482,2.706 -1.5253,170.7531 -0.079,171.6471 1.6444,1.0163 1.1359,4.0671 -1,6 -1.9388,1.7547 -2,1.7467 -2,-0.2616 z m 1244.80756,-35.1768 0.3075,-27.94 -2.3911,-1.5668 c -1.933,-1.2665 -3.0035,-1.3532 -5.5863,-0.4529 -4.4879,1.5645 -16.8568,0.6941 -21.3815,-1.5046 -5.6026,-2.7225 -11.6407,-9.1033 -14.4771,-15.2988 -3.4263,-7.484 -2.9895,-18.704 0.9925,-25.4989 6.0508,-10.3249 17.3,-16.4709 28.2284,-15.4227 3.3,0.3165 7.1665,0.8501 8.5922,1.1857 1.7318,0.4077 3.1424,0.06 4.25,-1.0475 1.4571,-1.4571 1.6578,-4.7452 1.6578,-27.1522 0,-16.3244 -0.388,-26.2193 -1.0787,-27.5099 -0.5933,-1.1086 -2.5058,-2.6365 -4.25,-3.3952 l -3.1713,-1.3794 3.0757,-0.039 c 1.9589,-0.025 3.8652,0.8012 5.25,2.2753 2.1243,2.2611 2.1743,2.9515 2.1743,29.9769 v 27.6625 l -2.5971,1.7017 c -2.2912,1.5013 -3.44,1.5644 -9.75,0.5362 -13.4103,-2.1854 -24.6956,3.0388 -30.2522,14.0042 -5.6584,11.1664 -3.8404,22.4947 5.0341,31.3692 7.1232,7.1232 13.8958,9.2792 23.8338,7.5872 8.9311,-1.5206 9.3969,-1.4869 11.7314,0.8476 1.9031,1.903 2,3.3333 2,29.5 v 27.5 h 25.4286 c 22.0117,0 25.6443,-0.2157 27.034,-1.6054 1.0998,-1.0998 1.3585,-2.2807 0.8214,-3.75 -0.4312,-1.1795 -0.7652,-6.1946 -0.7422,-11.1446 0.034,-7.3157 0.4744,-9.8864 2.3537,-13.7362 3.1965,-6.5486 9.2451,-12.4694 15.9492,-15.6124 4.7288,-2.217 7.0479,-2.6514 14.1553,-2.6514 7.284,0 9.3152,0.4003 14.1982,2.7982 7.1601,3.5161 11.9568,8.2753 15.3683,15.2482 3.1865,6.5128 4.2349,16.214 2.4979,23.1124 -1.8532,7.3597 -1.9217,7.3412 27.1268,7.3412 h 24.8088 v -26 c 0,-25.1834 0.067,-26.0668 2.1269,-28.1268 1.8926,-1.8926 2.7459,-2.0392 7.75,-1.3309 16.5067,2.3364 26.9269,-1.7063 33.5566,-13.0189 8.9994,-15.3564 1.3641,-34.8987 -15.8249,-40.5031 -2.6269,-0.8564 -6.2016,-1.0431 -11,-0.5744 -10.8389,1.0587 -12.9184,0.8449 -14.8586,-1.5276 -1.5695,-1.9192 -1.7496,-4.8868 -1.7462,-28.7791 0,-24.7928 0.1411,-26.8645 1.9853,-29.8892 1.757,-2.8817 2.4649,-3.2398 6.2462,-3.1598 4.1804,0.088 4.2038,0.1079 1.1834,0.9849 -1.6947,0.4921 -3.9447,1.8479 -5,3.0129 -1.7692,1.9532 -1.9417,4.122 -2.2151,27.847 -0.2772,24.069 -0.1733,25.8808 1.6105,28.0837 1.8777,2.3189 2.0135,2.3346 8.9158,1.0323 4.0484,-0.7639 8.6483,-1.0206 10.8896,-0.6077 10.0619,1.8534 18.4425,8.0229 23.1698,17.0567 3.6114,6.9015 3.7557,18.7891 0.3095,25.5 -7.0011,13.6336 -21.333,20.4223 -35.7917,16.9537 -5.3987,-1.2951 -5.6372,-1.2642 -7.4423,0.9649 -1.7124,2.1148 -1.8648,4.4186 -1.8648,28.1922 v 25.8892 h -26.845 c -32.6046,0 -31.1397,0.5981 -29.1123,-11.8858 1.2137,-7.4736 1.1564,-8.3652 -0.9494,-14.7837 -2.6461,-8.0652 -5.5602,-12.1796 -11.5406,-16.2943 -18.9299,-13.0241 -44.1537,-2.1138 -48.02,20.7706 -0.4043,2.3928 -0.1723,7.2258 0.5373,11.1968 1.1407,6.3831 1.0919,7.1601 -0.5656,8.9916 -1.7322,1.9141 -3.063,2.0049 -29.4093,2.0056 l -27.5951,9e-4 z m 351.280097,-143.4559 c -0.7365,-0.8875 -2.7451,-2.0212 -4.4634,-2.5194 -3.0876,-0.8952 -3.074,-0.9069 1.1571,-0.996 2.9041,-0.061 4.4625,0.3817 4.8444,1.3768 0.9612,2.5051 -0.058,3.9222 -1.5381,2.1386 z"
       id="path4" /></g></svg>
